<?xml version="1.0" standalone="no"?>
<!DOCTYPE svg PUBLIC "-//W3C//DTD SVG 1.1//EN" "http://www.w3.org/Graphics/SVG/1.1/DTD/svg11.dtd">
<svg xmlns="http://www.w3.org/2000/svg">
<metadata>Generated by Fontastic.me</metadata>
<defs>
<font id="templateocean-font" horiz-adv-x="512">
<font-face font-family="templateocean-font" units-per-em="512" ascent="480" descent="-32"/>
<missing-glyph horiz-adv-x="512" />

<glyph glyph-name="add-user" unicode="&#57344;" d="M340 167c-19 8-63 23-89 31-3 1-3 1-3 10 0 8 3 16 6 23 4 7 8 20 9 31 4 4 10 14 13 32 4 15 2 21 0 26 0 1 0 1-1 2 0 4 1 23 3 38 2 10 0 31-14 49-9 12-26 26-57 27l-17 0c-30-1-47-15-56-27-14-18-16-39-14-49 2-15 3-34 3-38-1-1-1-1-1-2-2-5-4-11 0-27 3-17 9-27 13-31 1-11 5-24 9-31 2-5 3-13 3-23 0-9 0-10-2-10-28-8-72-24-89-32-13-5-16-15-16-24 0-10 0-36 0-42 0-6 3-16 16-16 10 0 89 0 124 0 11 0 18 0 18 0l3 0c0 0 7 0 18 0 35 0 114 0 124 0 12 0 16 10 16 16 0 6 0 32 0 42 0 9-6 20-19 25z m2-67l-285 0 0 42c0 5 1 7 6 9 16 7 60 23 87 31 14 4 14 17 14 26 0 13-2 22-5 30-3 6-6 17-8 26l0 5-4 4c-1 2-6 8-9 24-2 12-1 15-1 17 1 1 1 2 2 4l0 1c2 7-1 31-3 44-1 5 0 22 11 36 7 9 20 19 44 21l16 0c19-2 34-9 44-21 11-14 12-31 11-36-2-13-5-37-3-45l0-1c1-1 1-2 1-2l0-1c1-2 2-5 0-17-3-16-8-22-9-24l-4-4 0-5c-2-9-5-20-8-26-4-8-8-18-8-30 0-9 0-21 15-26 26-8 69-23 87-30 7-3 9-8 9-10z m67 185l0 67-17 0 0-67-67 0 0-17 67 0 0-67 17 0 0 67 67 0 0 17z"/>
<glyph glyph-name="add-user-regular" unicode="&#57345;" d="M225 270c43 0 84-16 115-41l31 0c-25 25-58 45-93 54 41 20 68 61 68 110 0 68-55 123-123 123-67 0-123-55-123-123 0-49 29-90 68-110-84-23-148-103-148-197l0-61 246 0 0 20-225 0 0 41c0 102 82 184 184 184z m-102 123c0 57 45 102 102 102 58 0 103-45 103-102 0-57-45-102-103-102-57 0-102 45-102 102z m369-307l-62 0 0 61-20 0 0-61-62 0 0-21 62 0 0-61 20 0 0 61 62 0z"/>
<glyph glyph-name="vcard" unicode="&#57346;" d="M469 122c0 20-14 20-30 27l-77 31c-1 0-2 1-4 1-13 6-25 15-30 21 0 1-1 1-1 2-2 3-4 5-6 4l-1 0c-2-1-1 0-2 2-2 6-6 16-6 18-1 3-3-5-3 4l1 14c2 2 3 3 4 4 5 6 5 21 8 24 2 4 7 5 12 22 5 17 11 42 5 42-2 0-4-1-5-2 1 6 3 20 4 31 0 14-2 49-10 62-5 9-15 17-25 23-6 4-12 7-17 9-14 6-60 3-75 0-18-4-30-15-38-28-8-13-11-52-11-66 1-6 4-17 5-23 1-4 1-4 2-6-1 0-1 0-2 0-6 0 0-25 5-42 5-17 10-18 12-22 3-3 3-18 8-24 1-1 2-2 4-4l1-12 1-7c-1 2-2 4-3 1-2-7-4-13-6-20 0 1-1 1-1 1-2 2-5 0-8-4-3-6-16-16-31-22l0-2c-1-1-2-1-4-1l-76-31c-17-7-31-7-31-27l-12-67 460 0z"/>
<glyph glyph-name="users" unicode="&#57347;" d="M32 164c0-7 0-29 0-34 0-5 3-13 13-13 8 0 71 0 100 0 9 0 14 0 14 0l3 0c0 0 2 0 4 0 0-8 0-15 0-17 0-6 4-16 17-16 9 0 88 0 123 0 11 0 18 0 18 0l3 0c0 0 7 0 18 0 36 0 114 0 124 0 13 0 16 10 16 16 0 6 0 33 0 42 0 9-3 19-16 24-17 8-61 24-89 32-2 0-2 1-2 10 0 10 1 18 4 23 3 7 7 20 8 31 5 4 10 14 14 32 3 15 1 21-1 26 0 1 0 1 0 2-1 4 0 23 3 38 2 10-1 31-15 49-9 12-26 26-56 27l-17 0c-31-1-48-15-57-27-14-18-16-39-14-49 2-15 4-34 3-38 0-1-1-1-1-2-2-5-3-11 0-26 3-18 9-28 13-32 1-11 5-24 9-31 3-7 6-15 6-22 0-10 0-10-2-11-6-2-13-4-19-6-16 6-37 13-51 18-2 0-2 0-2 8 0 8 1 14 3 18 2 6 6 16 7 25 3 4 8 11 11 26 2 13 1 17-1 22 0 0 0 0 0 1-1 3 0 18 2 30 2 9 0 26-12 41-7 9-20 20-45 21l-14 0c-25-1-38-12-45-21-12-15-14-32-12-41 2-12 3-27 2-30 0-1 0-1 0-1-2-5-3-9-1-22 3-15 8-22 11-26 1-9 5-19 7-25 3-5 5-11 5-18 0-8 0-8-2-8-21-7-57-19-71-25-11-5-16-14-16-21z m151-22c0 2 3 7 9 10 18 7 61 22 87 30 15 5 15 17 15 26 0 12-4 22-8 30-3 6-6 17-7 26l-1 5-3 4c-2 2-7 8-10 24-2 12-1 15 0 17l0 1c0 1 1 1 1 2l0 1c2 8 0 32-3 45-1 5 1 22 11 36 10 12 25 19 44 21l16 0c24-2 37-12 44-21 11-14 12-31 11-36-2-13-4-37-3-44l0-1c1-2 1-3 2-4 1-2 2-5-1-17-3-16-7-22-9-24l-4-4 0-5c-1-9-5-20-8-26-3-7-5-17-5-30 0-9 0-22 14-26 27-8 71-24 87-31 5-2 6-4 6-9l0-42-285 0 0 42z m-134 22c0 1 1 4 5 5 15 7 49 19 70 25 14 4 14 17 14 24 0 10-3 18-7 26-2 4-4 12-5 19l-1 5-3 4c-1 1-5 6-7 18-2 9-1 11-1 12l0 1 1 0c0 1 0 1 0 2l0 1 1 0c1 8-1 29-3 37 0 4 1 17 9 27 7 9 18 15 33 16l12 0c19-2 28-9 33-16 8-10 9-23 9-27-2-9-4-29-3-37 1-1 1-2 2-4 0-1 1-3-1-12-2-12-6-17-7-18l-3-4-1-5c-1-7-3-15-6-19-3-7-4-15-4-26 0-8 0-20 14-24 8-3 19-7 30-10-18-6-35-13-44-17-14-5-20-16-20-25 0-2 0-5 0-8l-117 0 0 30z"/>
<glyph glyph-name="user" unicode="&#57348;" d="M256 465c-113 0-205-92-205-205 0-113 92-205 205-205 113 0 205 92 205 205 0 113-92 205-205 205z m0-17c103 0 188-85 188-188 0-46-17-87-44-120-18 8-63 23-90 31-2 1-3 1-3 11 0 8 4 16 7 23 3 7 8 20 9 31 4 5 10 14 13 32 4 16 2 22 0 28 0 0 0 1-1 1 0 4 1 23 3 39 2 10 0 32-14 50-9 12-27 26-58 28l-17 0c-31-2-48-16-57-28-15-18-17-40-15-50 3-16 4-35 3-39 0 0 0-1-1-1-2-6-3-12 0-28 4-18 9-27 13-32 2-11 6-24 9-31 3-6 4-13 4-23 0-10 0-10-2-11-29-8-74-25-90-32-28 33-45 75-45 121 0 103 85 188 188 188z m-131-322c19 8 57 21 83 29 14 4 14 17 14 27 0 8 0 20-5 30-3 7-7 19-8 29 0 2-1 4-3 5-2 2-7 10-10 26-3 12-2 15-1 17 1 2 1 3 1 4 2 7 0 32-2 46-1 6 0 22 11 37 10 12 25 19 44 21l16 0c20-2 35-9 45-21 11-15 13-31 12-37-3-14-5-39-3-46 0-1 1-3 1-4 1-2 2-5 0-17-3-16-8-24-11-26-1-1-3-3-3-5-1-10-4-22-8-29-3-8-8-19-8-30 0-10 0-22 15-27 24-7 63-20 83-28-34-34-81-55-132-55-51 0-97 21-131 54z"/>
<glyph glyph-name="user-female" unicode="&#57349;" d="M257 461c-111 0-201-90-201-201 0-111 90-201 201-201 112 0 202 90 202 201 0 111-90 201-202 201z m-110-349c12 5 26 9 38 13 41 14 47 16 47 30l0 33-14 2c-1 0-24 4-40 4-9 0-13 0-18 3 12 25 24 65 28 96l1 0 1 22c2 36 32 63 67 63 36 0 65-27 67-63l2-22c5-31 17-71 28-96-4-3-9-3-17-3-16 0-39-5-41-6l-13-3 0-30c0-14 6-16 49-31 11-4 23-8 35-13-31-22-69-36-110-36-41 0-79 14-110 37z m235 12c-35 13-83 28-83 31 0 4 0 17 0 17 0 0 23 5 38 5 15 0 25 1 38 17-16 28-34 90-34 122-2 44-39 79-84 79-44 0-81-35-83-79l-1 0c0-32-17-94-33-122 12-16 23-17 38-17 14 0 37-4 37-4 0 0 0-14 0-18 0-3-49-17-83-30-36 33-59 82-59 135 0 102 83 185 184 185 102 0 185-83 185-185 0-54-23-103-60-136z"/>
<glyph glyph-name="msn-messenger" unicode="&#57350;" d="M26 217c7 72 66 97 75 100-15 12-24 29-24 49 0 35 29 64 65 64 35 0 64-29 64-64 0-19-9-37-23-49 12-4 24-10 34-19-28-14-90-54-99-142 0-1 0-1 0-2-55 3-60 18-60 18-4 4-6 8-8 13-8 2-13 6-13 6 0 0-12 5-11 26z m227 79c-13-5-101-42-112-148-1-31 17-38 17-38 0 0 7-7 19-10 2-7 6-13 12-18 0 0 8-23 95-28 1 0 3 0 4 0 7 0 14 0 21 0 3 0 6 0 9 0 8 0 16 0 24 0 3 0 5 0 7 1 89 6 98 33 98 33l0 1c3 3 5 7 6 11 41 8 37 57 25 94-17 51-59 87-104 103 21 17 35 43 35 72 0 52-43 94-96 94-53 0-96-42-96-94 0-29 14-56 36-73z"/>
<glyph glyph-name="man-people-streamline-user" unicode="&#57351;" d="M461 147l-130 36 0 38c38 29 64 78 64 135 0 88-62 160-139 160-76 0-138-72-138-160 0-56 25-106 63-134l0-39-131-36c-30-11-50-39-50-71l0-72 512 0 0 72c0 32-20 60-51 71z m-205 348c51 0 94-39 110-93-4-4-10-6-18-6-21 1-50 19-61 40l-10 17-9-18c-9-18-25-28-46-32-28-5-58 5-71 11 18 48 59 81 105 81z m-116-139c0 13 1 26 4 38 20-10 52-17 82-12 22 4 39 14 52 30 18-21 46-36 70-37 0 0 1 0 2 0 8 0 15 2 21 5 2-8 2-16 2-24 0-76-52-139-117-139-64 0-116 63-116 139z m350-331l-468 0 0 51c0 23 14 43 34 50l147 41 0 42c16-9 34-13 53-13 19 0 37 4 53 12l0-41 146-41c21-7 35-27 35-50z"/>
<glyph glyph-name="speech-streamline-talk-user" unicode="&#57352;" d="M501 516l-320 0c-6 0-10-5-10-11l0-85c0-6 4-11 10-11 6 0 11 5 11 11l0 75 299 0 0-171-64 0c-3 0-6-1-8-3l-67-67 0 59c0 6-5 11-11 11l-42 0c-6 0-11-5-11-11 0-6 5-10 11-10l32 0 0-75c0-4 2-8 6-10 2 0 3-1 4-1 3 0 6 1 8 3l82 83 70 0c6 0 11 4 11 10l0 192c0 6-5 11-11 11z m-200-412l-78 28 0 36c25 20 40 53 40 91 0 61-42 112-94 112-53 0-95-51-95-112 0-40 17-75 44-94l0-33-77-28c-25-9-41-32-41-58l0-42 341 0 0 42c0 26-16 49-40 58z m-132 245c35 0 64-31 72-71-23-4-37 3-50 27l-10 17-9-17c-7-14-33-27-54-27-8 0-14 1-21 3 9 39 37 68 72 68z m-74-90c0 0 0 1 0 1 7-2 15-3 23-3 23 0 48 10 63 25 13-18 29-27 49-27 4 0 8 1 12 1-1-48-34-88-73-88-41 0-74 41-74 91z m225-234l-299 0 0 21c0 17 11 32 27 38l91 33 0 36c9-4 19-6 30-6 11 0 23 3 33 8l0-38 92-33c15-6 26-21 26-38z m85 374c0-6-4-11-10-11-6 0-11 5-11 11 0 6 5 10 11 10 6 0 10-4 10-10z m-53 0c0-6-5-11-11-11-6 0-10 5-10 11 0 6 4 10 10 10 6 0 11-4 11-10z m-53 0c0-6-5-11-11-11-6 0-11 5-11 11 0 6 5 10 11 10 6 0 11-4 11-10z"/>
<glyph glyph-name="delete-user" unicode="&#57353;" d="M348 167c-19 8-63 23-89 31-3 1-3 1-3 10 0 8 3 16 6 23 4 7 8 20 9 31 4 4 10 14 13 32 4 15 2 21 0 26 0 1 0 1-1 2 0 4 1 23 3 38 2 10 0 31-14 49-9 12-26 26-57 27l-17 0c-30-1-47-15-56-27-14-18-16-39-14-49 2-15 3-34 3-38-1-1-1-1-1-2-2-5-4-11 0-27 3-17 9-27 13-31 1-11 5-24 9-31 2-5 3-13 3-23 0-9 0-10-2-10-28-8-72-24-89-32-13-5-16-15-16-24 0-10 0-36 0-42 0-6 4-16 16-16 10 0 89 0 124 0 11 0 18 0 18 0l3 0c0 0 7 0 18 0 35 0 114 0 124 0 12 0 16 10 16 16 0 6 0 32 0 42 0 9-6 20-19 25z m2-67l-285 0 0 42c0 5 1 7 6 9 16 7 60 23 87 31 14 4 14 17 14 26 0 13-2 22-5 30-3 6-6 17-8 26l0 5-4 4c-1 2-6 8-9 24-2 12-1 15-1 17 1 1 1 2 2 4l0 1c2 7-1 31-3 44-1 5 0 22 11 36 7 9 20 19 44 21l16 0c19-2 34-9 44-21 11-14 12-31 11-36-2-13-5-37-3-45l0-1c1-1 1-2 1-2l0-1c1-2 2-5 0-17-3-16-8-22-9-24l-4-4 0-5c-2-9-5-20-8-26-4-8-8-18-8-30 0-9 0-21 15-26 26-8 69-23 87-30 7-3 9-8 9-10z m71 177l44 43-12 12-44-44-44 44-12-12 44-43-44-44 12-12 44 44 44-44 12 12z"/>
<glyph glyph-name="happy-smiley-streamline" unicode="&#57354;" d="M256 516c-141 0-256-115-256-256 0-141 115-256 256-256 141 0 256 115 256 256 0 141-115 256-256 256z m0-491c-129 0-235 106-235 235 0 129 106 235 235 235 129 0 235-106 235-235 0-129-106-235-235-235z m160 224c-6 0-11-4-11-10 0-83-67-150-149-150-82 0-149 67-149 150 0 6-5 10-11 10-6 0-11-4-11-10 0-94 77-171 171-171 94 0 171 77 171 171 0 6-5 10-11 10z m-299 43c6 0 11 5 11 11 0 17 14 32 32 32 18 0 32-15 32-32 0-6 5-11 11-11 6 0 10 5 10 11 0 29-24 53-53 53-29 0-53-24-53-53 0-6 4-11 10-11z m192 0c6 0 11 5 11 11 0 17 14 32 32 32 18 0 32-15 32-32 0-6 5-11 11-11 6 0 10 5 10 11 0 29-24 53-53 53-29 0-53-24-53-53 0-6 4-11 10-11z"/>
<glyph glyph-name="alarm" unicode="&#57355;" d="M256 422c-104 0-188-84-188-188 0-47 18-90 46-123l-44-53 13-11 43 52c34-32 79-52 130-52 50 0 96 20 130 52l42-52 14 11-44 54c28 33 46 76 46 122 0 104-84 188-188 188z m0-358c-94 0-171 76-171 170 0 94 77 171 171 171 94 0 170-77 170-171 0-94-76-170-170-170z m-77 409l-51 0c-47 0-85-38-85-85l0-51 24 0 112 112z m-17-17l-102-102 0 34c0 38 30 68 68 68z m222 17l-51 0 0-24 112-112 24 0 0 51c0 47-38 85-85 85z m68-119l-102 102 34 0c38 0 68-30 68-68z m-205-120l-94 0 0-17 112 0 0 154-18 0z"/>
<glyph glyph-name="basic-accelerator" unicode="&#57356;" d="M256 517c-69 0-133-27-182-75-48-49-75-113-75-182 0-69 27-133 75-181 49-49 113-75 182-75 142 0 257 115 257 256 0 69-27 133-75 182-49 48-113 75-182 75z m0-498l0-8 0 9c-64 0-125 25-170 70-46 46-71 106-71 170 0 65 25 125 71 170 45 46 106 71 170 71 64 0 125-25 170-71 46-45 71-106 71-170 0-133-105-241-241-241z m0 425c-49 0-95-19-130-54-35-35-54-81-54-130l16 0c0 45 17 87 49 119 32 32 74 49 119 49 45 0 87-17 119-49 32-32 49-74 49-119l16 0c0 49-19 95-54 130-35 35-81 54-130 54z m-10-186l-48 55-12-10 49-56c-2-4-3-7-3-11 0-7 3-13 7-17 5-5 11-7 17-7 6 0 12 3 17 7 9 10 9 25 0 34-7 7-18 8-27 5z m16-28c-3-3-9-3-12 0-1 2-2 4-2 6 0 2 1 4 2 6 2 1 4 2 6 2 2 0 4-1 6-2 3-3 3-8 0-12z"/>
<glyph glyph-name="basic-clock" unicode="&#57357;" d="M256 516c-68 0-133-27-181-75-48-48-75-113-75-181 0-68 27-133 75-181 48-48 113-75 181-75 68 0 133 27 181 75 48 48 75 113 75 181 0 68-27 133-75 181-48 48-113 75-181 75z m170-426c-46-45-106-70-170-70-64 0-124 25-170 70-45 46-70 106-70 170 0 64 25 124 70 170 46 45 106 70 170 70 64 0 124-25 170-70 45-46 70-106 70-170 0-64-25-124-70-170z m-162 330l-16 0 0-163 74-75 12 12-70 69z m-232-152l32 0 0-16-32 0z m416 0l32 0 0-16-32 0z m-200-200l16 0 0-32-16 0z m0 416l16 0 0-32-16 0z"/>
<glyph glyph-name="basic-anticlockwise" unicode="&#57358;" d="M334 194l-70 69 0 157-16 0 0-163 74-75z m-302 74l32 0 0-16-32 0z m416 0l32 0 0-16-32 0z m-200-200l16 0 0-32-16 0z m0 416l16 0 0-32-16 0z m181-40l67 0 0 16-88 0-8-8 0-88 16 0 0 71 36-36c29-41 44-89 44-139 0-132-108-240-240-240-132 0-240 108-240 240 0 132 108 240 240 240l0 16c-141 0-256-115-256-256 0-141 115-256 256-256 141 0 256 115 256 256 0 54-16 105-48 149z"/>
<glyph glyph-name="compass" unicode="&#57359;" d="M288 428c6 8 11 17 11 28 0 24-19 43-43 43-24 0-43-19-43-43 0-11 4-20 11-28-98-15-173-100-173-202 0-113 92-205 205-205 113 0 205 92 205 205 0 102-75 187-173 202z m-32 54c14 0 26-12 26-26 0-14-12-25-26-25-14 0-26 11-26 25 0 14 12 26 26 26z m0-444c-103 0-188 84-188 188 0 103 85 188 188 188 103 0 188-85 188-188 0-104-85-188-188-188z m-102 85l138 66 66 139-139-65-65-140z m74 119l43-44-82-39 39 83z m56-32l-44 44 82 38z"/>
<glyph glyph-name="compass-regular" unicode="&#57360;" d="M256 516c-141 0-256-115-256-256 0-141 115-256 256-256 141 0 256 115 256 256 0 141-115 256-256 256z m0-491c-130 0-235 105-235 235 0 130 105 235 235 235 130 0 235-105 235-235 0-130-105-235-235-235z m-149 86l213 85 85 213-213-85z m260 260l-64-158-158-64 64 158z m-94-111c0-9-8-17-17-17-9 0-17 8-17 17 0 9 8 17 17 17 9 0 17-8 17-17z"/>
<glyph glyph-name="stopwatch" unicode="&#57361;" d="M401 376l14 14 15-15 18 18-42 42-18-18 15-15-14-14c-32 29-74 48-120 51l0 34-26 0 0-34c-102-7-183-92-183-196 0-108 88-196 196-196 108 0 196 88 196 196 0 51-19 98-51 133z m-145-312c-99 0-179 80-179 179 0 99 80 179 179 179 99 0 179-80 179-179 0-99-80-179-179-179z m9 203l0 112-18 0 0-112c-9-4-17-13-17-24 0-11 8-21 17-24l0-36 18 0 0 36c9 3 17 13 17 24 0 11-8 20-17 24z"/>
<glyph glyph-name="stoper-regular" unicode="&#57362;" d="M267 473l0 22 53 0 0 21-128 0 0-21 53 0 0-22c-57-2-108-25-147-62l-19 20 23 23-15 17-64-64 15-15 26 24 19-20c-38-40-62-95-62-157 0-130 105-235 235-235 130 0 235 105 235 235 0 126-101 228-224 234z m-11-448c-117 0-213 96-213 214 0 117 96 213 213 213 117 0 213-96 213-213 0-118-96-214-213-214z m121 350l15-15-128-128-15 15z m-104 34c0-9-8-17-17-17-9 0-17 8-17 17 0 10 8 17 17 17 9 0 17-7 17-17z m0-341c0-9-8-17-17-17-9 0-17 8-17 17 0 9 8 17 17 17 9 0 17-8 17-17z m-171 171c0-10-7-17-17-17-9 0-17 7-17 17 0 9 8 17 17 17 10 0 17-8 17-17z m342 0c0-10-8-17-17-17-10 0-17 7-17 17 0 9 7 17 17 17 9 0 17-8 17-17z"/>
<glyph glyph-name="weather-wind-se" unicode="&#57363;" d="M256 516c-68 0-133-27-181-75-100-100-100-262 0-362 48-48 113-75 181-75 68 0 133 27 181 75 100 100 100 262 0 362-48 48-113 75-181 75z m170-426c-46-45-106-70-170-70-64 0-124 25-170 70-93 94-93 246 0 340 46 45 106 70 170 70 64 0 124-25 170-70 93-94 93-246 0-340z m-170 210c-11 0-21-4-28-12-16-15-16-41 0-56 7-8 17-12 28-12 11 0 21 4 28 12 16 15 16 41 0 56-7 8-17 12-28 12z m17-57c-9-9-25-9-34 0-9 9-9 25 0 34 5 5 11 7 17 7 6 0 12-2 17-7 9-9 9-25 0-34z m57 91c-20 19-46 30-74 30-28 0-54-11-74-30-19-20-30-46-30-74 0-28 11-54 30-74 39-38 202-69 209-70l11-2-2 11c-1 7-32 170-70 209z m-136-136c-17 16-26 39-26 62 0 24 9 46 26 62 16 17 38 26 62 26 24 0 46-9 62-26 27-27 53-136 64-188-52 11-161 37-188 64z"/>
<glyph glyph-name="weather-wind-s" unicode="&#57364;" d="M256 4c141 0 256 115 256 256 0 141-115 256-256 256-141 0-256-115-256-256 0-141 115-256 256-256z m0 496c132 0 240-108 240-240 0-132-108-240-240-240-132 0-240 108-240 240 0 132 108 240 240 240z m40-240c0 22-18 40-40 40-22 0-40-18-40-40 0-22 18-40 40-40 22 0 40 18 40 40z m-64 0c0 13 11 24 24 24 13 0 24-11 24-24 0-13-11-24-24-24-13 0-24 11-24 24z m24-215l7 11c4 6 97 149 97 204 0 57-47 104-104 104-57 0-104-47-104-104 0-55 93-198 97-204z m0 303c49 0 88-39 88-88 0-38-58-138-88-185-30 47-88 147-88 185 0 49 39 88 88 88z"/>
<glyph glyph-name="weather-wind-nw" unicode="&#57365;" d="M256 516c-68 0-133-27-181-75-48-48-75-113-75-181 0-68 27-133 75-181 48-48 113-75 181-75 68 0 133 27 181 75 48 48 75 113 75 181 0 68-27 133-75 181-48 48-113 75-181 75z m170-426c-46-45-106-70-170-70-64 0-124 25-170 70-45 46-70 106-70 170 0 64 25 124 70 170 46 45 106 70 170 70 64 0 124-25 170-70 45-46 70-106 70-170 0-64-25-124-70-170z m-170 210c-11 0-21-4-28-12-8-7-12-17-12-28 0-11 4-21 12-28 7-8 17-12 28-12 11 0 21 4 28 12 8 7 12 17 12 28 0 11-4 21-12 28-7 8-17 12-28 12z m17-57c-9-9-25-9-34 0-5 5-7 11-7 17 0 6 2 12 7 17 5 5 11 7 17 7 6 0 12-2 17-7 4-5 7-11 7-17 0-6-2-12-7-17z m-152 161l-11 2 2-11c1-7 32-170 70-209 20-19 46-30 74-30 28 0 54 11 74 30 19 20 30 46 30 74 0 28-11 54-30 74-39 38-202 69-209 70z m197-206c-16-17-39-26-62-26-24 0-46 9-62 26-27 27-53 136-64 188 52-11 161-37 188-64 17-16 26-38 26-62 0-24-9-46-26-62z"/>
<glyph glyph-name="weather-wind-n" unicode="&#57366;" d="M256 516c-141 0-256-115-256-256 0-141 115-256 256-256 141 0 256 115 256 256 0 141-115 256-256 256z m0-496c-132 0-240 108-240 240 0 132 108 240 240 240 132 0 240-108 240-240 0-132-108-240-240-240z m-40 240c0-22 18-40 40-40 22 0 40 18 40 40 0 22-18 40-40 40-22 0-40-18-40-40z m64 0c0-13-11-24-24-24-13 0-24 11-24 24 0 13 11 24 24 24 13 0 24-11 24-24z m-24 215l-7-11c-4-6-97-149-97-204 0-57 47-104 104-104 57 0 104 47 104 104 0 55-93 198-97 204z m0-303c-49 0-88 39-88 88 0 38 58 138 88 185 30-47 88-147 88-185 0-49-39-88-88-88z"/>
<glyph glyph-name="clock-regular" unicode="&#57367;" d="M256 495c130 0 235-105 235-235 0-130-105-235-235-235-130 0-235 105-235 235 0 130 105 235 235 235z m0 21c-141 0-256-115-256-256 0-141 115-256 256-256 141 0 256 115 256 256 0 141-115 256-256 256z m0-314l-115 113 17 17 98-100 141 143 17-17z m17 250c0-9-8-17-17-17-9 0-17 8-17 17 0 9 8 17 17 17 9 0 17-8 17-17z m0-384c0-9-8-17-17-17-9 0-17 8-17 17 0 9 8 17 17 17 9 0 17-8 17-17z m-192 192c0-9-8-17-17-17-9 0-17 8-17 17 0 9 8 17 17 17 9 0 17-8 17-17z m384 0c0-9-8-17-17-17-9 0-17 8-17 17 0 9 8 17 17 17 9 0 17-8 17-17z"/>
<glyph glyph-name="clock" unicode="&#57368;" d="M256 465c-113 0-205-92-205-205 0-113 92-205 205-205 113 0 205 92 205 205 0 113-92 205-205 205z m0-393c-103 0-188 85-188 188 0 103 85 188 188 188 103 0 188-85 188-188 0-103-85-188-188-188z m0 171l-102 0 0-17 119 0 0 170-17 0z"/>
<glyph glyph-name="smile" unicode="&#57369;" d="M253 465c-114 0-205-92-205-205 0-113 91-205 205-205 113 0 205 92 205 205 0 113-92 205-205 205z m0-393c-103 0-188 85-188 188 0 103 85 188 188 188 103 0 188-85 188-188 0-103-85-188-188-188z m106 139c-4 2-9 1-11-3-18-37-55-59-95-59-41 0-77 22-96 59-1 4-7 6-11 3-4-1-6-6-4-11 21-42 63-68 111-68 47 0 89 26 110 68 2 5 1 10-4 11z m-149 92c0-14-11-26-25-26-15 0-26 12-26 26 0 14 11 25 26 25 14 0 25-11 25-25z m137 0c0-14-12-26-26-26-14 0-26 12-26 26 0 14 12 25 26 25 14 0 26-11 26-25z"/>
<glyph glyph-name="site-map-regular" unicode="&#57370;" d="M512 305l0 200-200 0 0-89-67 0 0-145-45 0 0 89-200 0 0-200 200 0 0 89 45 0 0-145 67 0 0-89 200 0 0 200-200 0 0-89-45 0 0 268 45 0 0-89 200 0z m-334-123l-156 0 0 156 156 0z m156 11l156 0 0-156-156 0z m0 290l156 0 0-156-156 0z"/>
<glyph glyph-name="music-mixer" unicode="&#57371;" d="M0 4l512 0 0 512-512 0z m16 496l480 0 0-480-480 0z m120-64l-16 0 0-24-40 0 0-16 40 0 0-312 16 0 0 312 40 0 0 16-40 0z m256 0l-16 0 0-312-40 0 0-16 40 0 0-24 16 0 0 24 40 0 0 16-40 0z m-128 0l-16 0 0-168-40 0 0-16 40 0 0-168 16 0 0 168 40 0 0 16-40 0z"/>
<glyph glyph-name="network" unicode="&#57372;" d="M383 226l0 42-117 0 0 26 75 0 0 167-167 0 0-167 75 0 0-26-117 0 0-42-76 0 0-167 168 0 0 167-76 0 0 26 219 0 0-26-76 0 0-167 168 0 0 167z m-193 219l135 0 0-135-135 0z m17-370l-134 0 0 135 134 0z m235 0l-134 0 0 135 134 0z"/>
<glyph glyph-name="map" unicode="&#57373;" d="M369 462l-11 5-102-51-102 51-111-56 0-358 111 56 102-52 102 52 111-56 0 358-100 51z m-224-339l-85-42 0 320 85 43z m102-42l-85 42 0 321 85-43z m103 42l-85-42 0 320 85 43z m102-42l-85 42 0 321 85-43z"/>
<glyph glyph-name="map-regular" unicode="&#57374;" d="M347 457l-162 39-165-39 0-453 167 40 158-40 147 59 0 453z m-150 16l138-34 0-413-138 35z m-157-32l137 33 0-413-137-31z m432-364l-118-47 0 409 118 47z"/>
<glyph glyph-name="map-2" unicode="&#57375;" d="M312 239l-51 29 0 104c29 4 51 29 51 59 0 33-26 59-60 59-33 0-59-26-59-59 0-30 22-55 51-59l0-94-51 29-137-56 0-209 137 56 119-68 137 68 0 209-137-68z m-137-130l-102-41 0 172 102 42 0-173z m35 322c0 24 18 42 42 42 24 0 43-18 43-42 0-24-19-43-43-43-24 0-42 19-42 43z m102-383l-119 69 0 170 51-29 0-75 17 0 0 66 51-29z m119 60l-102-51 0 171 102 51z"/>
<glyph glyph-name="graph-regular" unicode="&#57376;" d="M60 155l142 171 100-100 210 250-16 12-194-234-100 101-142-168 0 315-20 0 0-81-40 0 0-20 40 0 0-81-40 0 0-20 40 0 0-80-40 0 0-20 40 0 0-81-40 0 0-20 40 0 0-81 464 0 0 20-444 0z"/>
<glyph glyph-name="graph3" unicode="&#57377;" d="M452 286l0-205-85 0 0 375-17 0 0-375-85 0 0 256-18 0 0-256-85 0 0 102-17 0 0-102-85 0 0 153-17 0 0-170 426 0 0 222z"/>
<glyph glyph-name="graph2" unicode="&#57378;" d="M51 465l0-410 410 0 0 410z m393-17l0-74-113-162-77 61-85-120-51 34-50-58 0 319 376 0z m-376-376l0 31 53 61 52-34 85 118 77-61 109 157 0-272z"/>
<glyph glyph-name="graph1" unicode="&#57379;" d="M448 499c-24 0-43-19-43-43 0-15 8-28 19-35l-80-213c-2 0-5 1-7 1-10 0-20-4-27-10l-81 67c4 6 6 12 6 20 0 23-20 42-43 42-24 0-43-19-43-42 0-13 6-24 15-32l-86-150c-5 2-9 2-14 2-23 0-43-19-43-42 0-24 20-43 43-43 24 0 43 19 43 43 0 12-6 24-14 31l86 150c4-1 8-2 13-2 10 0 19 4 27 10l80-67c-3-6-5-13-5-20 0-23 19-42 43-42 23 0 43 19 43 42 0 15-8 29-20 36l80 212c3 0 5 0 8 0 23 0 43 19 43 42 0 24-20 43-43 43z m-384-461c-14 0-26 12-26 26 0 14 12 25 26 25 14 0 26-11 26-25 0-14-12-26-26-26z m128 222c-14 0-26 11-26 26 0 14 12 25 26 25 14 0 26-11 26-25 0-15-12-26-26-26z m145-119c-14 0-26 11-26 25 0 14 12 26 26 26 14 0 26-12 26-26 0-14-12-25-26-25z m111 290c-14 0-26 11-26 25 0 14 12 26 26 26 14 0 26-12 26-26 0-14-12-25-26-25z"/>
<glyph glyph-name="edit" unicode="&#57380;" d="M452 422c0 24-19 43-42 43-24 0-43-19-43-43 0-21 15-38 34-42l0-291 17 0 0 291c20 4 34 21 34 42z m-42-26c-15 0-26 12-26 26 0 14 11 26 26 26 14 0 25-12 25-26 0-14-11-26-25-26z m-299-256l0 291-17 0 0-291c-20-4-34-21-34-42 0-24 19-43 42-43 24 0 43 19 43 43 0 21-15 38-34 42z m-9-68c-14 0-25 12-25 26 0 14 11 26 25 26 15 0 26-12 26-26 0-14-11-26-26-26z m163 230l0 129-18 0 0-129c-19-4-34-21-34-42 0-21 15-38 34-42l0-129 18 0 0 129c19 4 34 21 34 42 0 21-15 38-34 42z m-9-68c-14 0-26 12-26 26 0 14 12 26 26 26 14 0 26-12 26-26 0-14-12-26-26-26z"/>
<glyph glyph-name="ecommerce-graph3" unicode="&#57381;" d="M448 212c-18 0-32 14-32 32 0 18 14 32 32 32 18 0 32-14 32-32 0-18-14-32-32-32z m0 48c-9 0-16-7-16-16 0-9 7-16 16-16 9 0 16 7 16 16 0 9-7 16-16 16z m-272 192c-18 0-32 14-32 32 0 18 14 32 32 32 18 0 32-14 32-32 0-18-14-32-32-32z m0 48c-9 0-16-7-16-16 0-9 7-16 16-16 9 0 16 7 16 16 0 9-7 16-16 16z m144-416c-18 0-32 14-32 32 0 18 14 32 32 32 18 0 32-14 32-32 0-18-14-32-32-32z m0 48c-9 0-16-7-16-16 0-9 7-16 16-16 9 0 16 7 16 16 0 9-7 16-16 16z m-264 104c-18 0-32 14-32 32 0 18 14 32 32 32 18 0 32-14 32-32 0-18-14-32-32-32z m0 48c-9 0-16-7-16-16 0-9 7-16 16-16 9 0 16 7 16 16 0 9-7 16-16 16z m97 188l14-8-96-176-14 8z m273-239l12-10-88-96-12 10z m86-229l-512 0 0 64 512 0z m-496 16l480 0 0 32-480 0z m184 451l112-328-16-6-112 328z"/>
<glyph glyph-name="display1" unicode="&#57382;" d="M478 153l0 307-444 0 0-307 213 0 0-33-80-45 8-15 81 45 81-45 8 15-80 45 0 33z m-427 290l410 0 0-273-410 0z m194-174l-51 71-34-66-53 107-39-143 17-4 27 100 48-98 36 71 55-76 47 158-16 5z m130 89c-28 0-51-23-51-52 0-28 23-51 51-51 29 0 52 23 52 51 0 29-23 52-52 52z m0-86c-18 0-34 16-34 34 0 19 16 34 34 34 19 0 35-15 35-34 0-18-16-34-35-34z"/>
<glyph glyph-name="display2" unicode="&#57383;" d="M486 452l-460 0 0-17 34 0 0-307 187 0 0-43-136 0 0-17 290 0 0 17-136 0 0 43 187 0 0 307 34 0z m-51-307l-358 0 0 290 358 0z m-205 239l-102 0 0-103 102 0z m-17-86l-68 0 0 69 68 0z m52 0l119 0 0-17-119 0z m0 86l119 0 0-17-119 0z m0-43l119 0 0-17-119 0z m-137-94l256 0 0-17-256 0z m0-51l256 0 0-17-256 0z"/>
<glyph glyph-name="dashboard-regular" unicode="&#57384;" d="M256 516c-141 0-256-115-256-256 0-141 115-256 256-256 141 0 256 115 256 256 0 141-115 256-256 256z m0-21c130 0 235-105 235-235 0-60-24-113-60-156-47 45-109 71-175 71-66 0-128-26-175-71-36 43-60 96-60 156 0 130 105 235 235 235z m-160-406c43 41 100 64 160 64 60 0 117-23 160-64-43-40-98-64-160-64-62 0-119 24-160 64z m316 312l-149-149-15 15 149 149z m-139 51c0-9-8-17-17-17-9 0-17 8-17 17 0 9 8 17 17 17 9 0 17-8 17-17z m-192-192c0-9-8-17-17-17-9 0-17 8-17 17 0 9 8 17 17 17 9 0 17-8 17-17z m384 0c0-9-8-17-17-17-10 0-17 8-17 17 0 9 7 17 17 17 9 0 17-8 17-17z m-346 119c5 0 9 3 11 5 7 6 7 17 0 23-6 6-17 6-23 0-7-6-7-17 0-23 4-2 8-5 12-5z m94-290l86 0 0-21-86 0z"/>
<glyph glyph-name="chart-regular" unicode="&#57385;" d="M453 44l0 393-20 0 0-393-79 0 0 196-19 0 0-196-79 0 0 295-20 0 0-295-78 0 0 98-20 0 0-98-79 0 0 452-19 0 0-79-40 0 0-19 40 0 0-79-40 0 0-20 40 0 0-78-40 0 0-20 40 0 0-79-40 0 0-19 40 0 0-79 472 0 0 20z"/>
<glyph glyph-name="basic-map" unicode="&#57386;" d="M176 485l-176-67 0-386 176 67 160-64 176 67 0 386-176-67z m8-21l144-57 0-351-144 57z m-168-58l152 58 0-350-152-58z m480-292l-152-58 0 350 152 58z"/>
<glyph glyph-name="basic-mixer2" unicode="&#57387;" d="M104 467l0 49-16 0 0-49c-27-4-48-27-48-55 0-28 21-51 48-55l0-353 16 0 0 353c27 4 48 27 48 55 0 28-21 51-48 55z m-8-95c-22 0-40 18-40 40 0 22 18 40 40 40 22 0 40-18 40-40 0-22-18-40-40-40z m328-209l0 353-16 0 0-353c-27-4-48-27-48-55 0-28 21-51 48-55l0-49 16 0 0 49c27 4 48 27 48 55 0 28-21 51-48 55z m-8-95c-22 0-40 18-40 40 0 22 18 40 40 40 22 0 40-18 40-40 0-22-18-40-40-40z m-152 247l0 201-16 0 0-201c-27-4-48-27-48-55 0-28 21-51 48-55l0-201 16 0 0 201c27 4 48 27 48 55 0 28-21 51-48 55z m-8-95c-22 0-40 18-40 40 0 22 18 40 40 40 22 0 40-18 40-40 0-22-18-40-40-40z"/>
<glyph glyph-name="timer" unicode="&#57388;" d="M235 245c0 0 1-1 1-1 5-6 12-10 20-10 14 0 26 12 26 26 0 8-4 14-9 19-1 1-1 1-2 2l-104 79c-3 2-7 2-10 0-4-3-4-8-2-12z m21 228c-3 0-6 0-8 0l0-9-1 0 0-93 18 0 0 85c104-5 187-91 187-196 0-108-88-196-196-196-108 0-196 88-196 196 0 54 22 103 57 139l-12 12c-38-39-62-92-62-151 0-118 95-213 213-213 118 0 213 95 213 213 0 118-95 213-213 213z"/>
<glyph glyph-name="target" unicode="&#57389;" d="M257 331c-38 0-68-31-68-68 0-38 30-69 68-69 38 0 68 31 68 69 0 37-30 68-68 68z m0-120c-28 0-51 23-51 52 0 28 23 51 51 51 28 0 51-23 51-51 0-29-23-52-51-52z m0 188c-75 0-137-61-137-136 0-76 62-137 137-137 75 0 136 61 136 137 0 75-61 136-136 136z m0-256c-66 0-120 54-120 120 0 66 54 119 120 119 66 0 119-53 119-119 0-66-53-120-119-120z m204 120c0 113-92 204-205 204-113 0-205-91-205-204 0-63 28-118 72-156l-35-44 14-10 34 43c34-24 75-38 120-38 44 0 86 14 119 38l35-43 13 10-34 44c44 37 72 93 72 156z m-393 0c0 103 85 187 188 187 103 0 188-84 188-187 0-104-85-188-188-188-103 0-188 84-188 188z"/>
<glyph glyph-name="software-scale-reduce" unicode="&#57390;" d="M0 276l16 0 0 224 480 0 0-480-224 0 0-16 240 0 0 512-512 0z m256-16l-24 0 0-16 8 0 0-8 16 0z m-72 0l32 0 0-16-32 0z m-144 0l32 0 0-16-32 0z m96 0l32 0 0-16-32 0z m-48 0l32 0 0-16-32 0z m-72-16l8 0 0 16-24 0 0-24 16 0z m-16-120l16 0 0-32-16 0z m0 48l16 0 0-32-16 0z m0 48l16 0 0-32-16 0z m0-144l16 0 0-32-16 0z m24-56l-8 0 0 8-16 0 0-24 24 0z m112 0l32 0 0-16-32 0z m-48 0l32 0 0-16-32 0z m96 0l32 0 0-16-32 0z m-144 0l32 0 0-16-32 0z m192-16l24 0 0 24-16 0 0-8-8 0z m8 168l16 0 0-32-16 0z m0 48l16 0 0-32-16 0z m0-96l16 0 0-32-16 0z m0-48l16 0 0-32-16 0z m80 344l0-88 8-8 88 0 0 16-69 0 115 114-12 12-114-115 0 69z"/>
<glyph glyph-name="software-scale-expand" unicode="&#57391;" d="M128 516l32 0 0-16-32 0z m48 0l32 0 0-16-32 0z m48 0l32 0 0-16-32 0z m-192 0l32 0 0-16-32 0z m48 0l32 0 0-16-32 0z m304-496l32 0 0-16-32 0z m112 240l16 0 0-32-16 0z m-128 256l32 0 0-16-32 0z m128-352l16 0 0-32-16 0z m0 144l16 0 0-32-16 0z m-80 208l32 0 0-16-32 0z m-416-48l16 0 0-32-16 0z m0 48l16 0 0-32-16 0z m0-192l16 0 0-32-16 0z m496-208l16 0 0-32-16 0z m-160-96l32 0 0-16-32 0z m160 48l16 0 0-32-16 0z m-496 352l16 0 0-32-16 0z m0-48l16 0 0-32-16 0z m480-352l32 0 0-16-32 0z m16 192l16 0 0-32-16 0z m-64-192l32 0 0-16-32 0z m64 384l16 0 0-32-16 0z m0-48l16 0 0-32-16 0z m-176 160l32 0 0-16-32 0z m144 0l32 0 0-16-32 0z m32-16l16 0 0-32-16 0z m0-48l16 0 0-32-16 0z m-208-432l32 0 0-16-32 0z m-16 496l32 0 0-16-32 0z m-16-256l-256 0 0-256 256 0z m-16-240l-224 0 0 224 224 0z m94 306l114 115 0-69 16 0 0 88-8 8-88 0 0-16 69 0-115-114z"/>
<glyph glyph-name="share-regular" unicode="&#57392;" d="M491 25l-470 0 0 470 192 0 0 21-213 0 0-512 512 0 0 213-21 0z m-192 491l0-21 177 0-271-269 17-17 269 271 0-177 21 0 0 213z"/>
<glyph glyph-name="checkmark-regular" unicode="&#57393;" d="M458 54l-413 0 0 92-19 18 0-129 450 0 0 242-18-19z m-413 412l354 0 19 19-392 0 0-54 19-19z m467-35l-15 15-302-304-180 182-15-15 195-193z"/>
<glyph glyph-name="angle-down" unicode="&#57394;" d="M244 209l12-12 96 97-12 12-84-85-84 84-12-12z"/>
<glyph glyph-name="angle-down-circle" unicode="&#57395;" d="M256 474c-118 0-214-96-214-214 0-118 96-213 214-213 117 0 213 95 213 213 0 118-96 214-213 214z m0-410c-109 0-197 88-197 196 0 108 88 196 197 196 108 0 196-88 196-196 0-108-88-196-196-196z m-13 145l12-12 97 97-12 12-85-85-84 84-12-12z"/>
<glyph glyph-name="angle-left" unicode="&#57396;" d="M205 272l-12-12 96-96 12 12-84 84 84 84-12 12z"/>
<glyph glyph-name="angle-left-circle" unicode="&#57397;" d="M469 260c0 118-96 214-213 214-118 0-214-96-214-214 0-118 96-213 214-213 117 0 213 95 213 213z m-410 0c0 108 88 196 197 196 108 0 196-88 196-196 0-108-88-196-196-196-109 0-197 88-197 196z m146 12l-12-12 96-96 12 12-84 84 84 84-12 12z"/>
<glyph glyph-name="angle-right" unicode="&#57398;" d="M307 248l12 12-97 96-12-12 84-84-84-84 12-12z"/>
<glyph glyph-name="angle-right-circle" unicode="&#57399;" d="M42 260c0-118 96-213 214-213 117 0 213 95 213 213 0 118-96 214-213 214-118 0-214-96-214-214z m410 0c0-108-88-196-196-196-109 0-197 88-197 196 0 108 88 196 197 196 108 0 196-88 196-196z m-145-12l12 12-97 97-12-13 84-84-84-84 12-12 49 48z"/>
<glyph glyph-name="angle-up" unicode="&#57400;" d="M268 311l-12 12-96-96 12-13 84 85 84-84 12 12z"/>
<glyph glyph-name="angle-up-circle" unicode="&#57401;" d="M256 47c117 0 213 95 213 213 0 118-96 214-213 214-118 0-214-96-214-214 0-118 96-213 214-213z m0 409c108 0 196-88 196-196 0-108-88-196-196-196-109 0-197 88-197 196 0 108 88 196 197 196z m12-145l-12 12-97-96 12-13 85 85 84-84 12 12z"/>
<glyph glyph-name="arrow-carrot-2left" unicode="&#57402;" d="M133 249l94-107c7-6 17-6 23 0 6 6 6 16 0 23l-85 96 85 95c6 7 6 17 0 23-6 6-16 6-23 0l-94-107c-3-3-5-7-5-11 0-5 2-9 5-12z m232 130c-6 7-17 7-23 0l-95-107c-3-3-4-7-4-11 0-5 1-9 4-12l95-107c6-6 17-6 23 0 6 6 6 16 0 23l-85 96 85 95c6 7 6 17 0 23z"/>
<glyph glyph-name="arrow-carrot-2right" unicode="&#57403;" d="M379 271l-94 107c-7 6-17 6-23 0-6-6-6-16 0-23l85-96-85-95c-6-7-6-17 0-23 6-6 16-6 23 0l94 107c3 3 5 7 5 11 0 5-2 9-5 12z m-232-130c6-7 17-7 23 0l95 107c3 3 4 7 4 11 0 5-1 9-4 12l-95 107c-6 6-17 6-23 0-6-6-6-16 0-23l85-96-85-95c-6-7-6-17 0-23z"/>
<glyph glyph-name="arrow-carrot-left" unicode="&#57404;" d="M197 233l104-104c6-6 16-6 22 0 6 6 6 16 0 22l-92 93 92 93c6 6 6 16 0 22-6 6-16 6-22 0l-104-104c-3-3-5-7-5-11 0-4 2-8 5-11z"/>
<glyph glyph-name="arrow-carrot-right" unicode="&#57405;" d="M221 129c6-6 16-6 22 0l104 104c3 3 5 7 5 11 0 4-2 8-5 11l-104 104c-6 6-16 6-22 0-6-6-6-16 0-22l92-93-92-93c-6-6-6-16 0-22z"/>
<glyph glyph-name="arrow-left" unicode="&#57406;" d="M64 276c0-2 0-4 1-6 1-2 2-4 4-5l96-96c6-7 16-7 22 0 7 6 7 16 0 22l-68 69 313 0c9 0 16 7 16 16 0 9-7 16-16 16l-313 0 68 69c7 6 7 16 0 22-6 7-16 7-22 0l-96-96c-2-1-3-3-4-5-1-2-1-4-1-6z"/>
<glyph glyph-name="arrow-right" unicode="&#57407;" d="M64 276c0-9 7-16 16-16l313 0-68-69c-7-6-7-16 0-22 6-7 16-7 22 0l96 96c2 1 3 3 4 5 1 2 1 4 1 6 0 2 0 4-1 6-1 2-2 4-4 5l-96 96c-6 7-16 7-22 0-7-6-7-16 0-22l68-69-313 0c-9 0-16-7-16-16z"/>
<glyph glyph-name="arrow-triangle-down" unicode="&#57408;" d="M267 201c0 0 0 1 0 1l112 123c6 7 6 18 0 25 0 0 0 1 0 1-3 3-7 5-12 5l-223 0c-5 0-9-2-12-6-6-7-6-18 0-25l112-124c7-7 17-7 23 0z"/>
<glyph glyph-name="arrow-triangle-left" unicode="&#57409;" d="M289 384l-124-112c-7-7-7-17 0-23 0 0 1 0 1 0l123-112c7-6 18-6 25 0 0 0 0 0 1 0 3 3 5 7 5 12l0 223c0 5-2 9-6 12-7 6-18 6-25 0z"/>
<glyph glyph-name="arrow-triangle-right" unicode="&#57410;" d="M222 136l123 113c7 6 7 16 0 22 0 0-1 0-1 1l-122 112c-7 6-18 6-25 0 0 0 0-1 0-1-3-2-5-6-5-11l0-224c0-5 2-9 6-12l-1 0c7-6 18-6 25 0z"/>
<glyph glyph-name="arrow-triangle-up" unicode="&#57411;" d="M144 196l223 0c5 0 9 2 12 6 6 7 6 18 0 25l-112 124c-6 7-16 7-23 0 0 0 0-1 0-1l-112-123c-6-7-6-18 0-25 0 0 0-1 1-1 2-3 6-5 11-5z"/>
<glyph glyph-name="arrows-circle-left" unicode="&#57412;" d="M223 118l137 136 0 12-137 136-12-12 130-130-130-130z m33-114c68 0 133 27 181 75 48 48 75 113 75 181 0 68-27 133-75 181-48 48-113 75-181 75-68 0-133-27-181-75-48-48-75-113-75-181 0-68 27-133 75-181 48-48 113-75 181-75z m-170 426c46 45 106 70 170 70 64 0 124-25 170-70 45-46 70-106 70-170 0-64-25-124-70-170-46-45-106-70-170-70-64 0-124 25-170 70-45 46-70 106-70 170 0 64 25 124 70 170z"/>
<glyph glyph-name="arrows-circle-plus" unicode="&#57413;" d="M248 116l16 0 0 136 136 0 0 16-136 0 0 136-16 0 0-136-136 0 0-16 136 0z m8-112c68 0 133 27 181 75 48 48 75 113 75 181 0 68-27 133-75 181-48 48-113 75-181 75-68 0-133-27-181-75-48-48-75-113-75-181 0-68 27-133 75-181 48-48 113-75 181-75z m-170 426c46 45 106 70 170 70 64 0 124-25 170-70 45-46 70-106 70-170 0-64-25-124-70-170-46-45-106-70-170-70-64 0-124 25-170 70-45 46-70 106-70 170 0 64 25 124 70 170z"/>
<glyph glyph-name="arrows-circle-remove" unicode="&#57414;" d="M147 176l11-11 98 99 99-98 11 11-99 98 98 99-11 11-98-99-99 98-11-11 99-98z m109-172c68 0 133 27 181 75 48 48 75 113 75 181 0 68-27 133-75 181-48 48-113 75-181 75-68 0-133-27-181-75-48-48-75-113-75-181 0-68 27-133 75-181 48-48 113-75 181-75z m-170 426c46 45 106 70 170 70 64 0 124-25 170-70 45-46 70-106 70-170 0-64-25-124-70-170-46-45-106-70-170-70-64 0-124 25-170 70-45 46-70 106-70 170 0 64 25 124 70 170z"/>
<glyph glyph-name="arrows-circle-right" unicode="&#57415;" d="M302 130l-131 130 131 130-13 12-137-136 0-12 137-136z m-46-126c68 0 133 27 181 75 48 48 75 113 75 181 0 68-27 133-75 181-48 48-113 75-181 75-68 0-133-27-181-75-48-48-75-113-75-181 0-68 27-133 75-181 48-48 113-75 181-75z m-170 426c46 45 106 70 170 70 64 0 124-25 170-70 45-46 70-106 70-170 0-64-25-124-70-170-46-45-106-70-170-70-64 0-124 25-170 70-45 46-70 106-70 170 0 64 25 124 70 170z"/>
<glyph glyph-name="arrows-expand" unicode="&#57416;" d="M16 489l154-155 12 12-155 154 69 0 0 16-88 0-8-8 0-88 16 0z m80-485l0 16-69 0 155 154-12 12-154-155 0 69-16 0 0-88 8-8z m400 27l-154 155-12-12 155-154-69 0 0-16 88 0 8 8 0 88-16 0z m-80 485l0-16 69 0-155-154 12-12 154 155 0-69 16 0 0 88-8 8z"/>
<glyph glyph-name="close-circle" unicode="&#57417;" d="M105 411c-83-83-83-219 0-302 83-83 219-83 302 0 83 83 83 218 0 302-83 83-218 83-302 0z m290-290c-77-76-201-76-278 0-76 77-76 201 0 278 77 76 201 76 278 0 76-77 76-201 0-278z m-223 235l-13-12 85-84-84-84 12-12 84 84 84-84 12 12-84 84 85 84-13 12-84-84z"/>
<glyph glyph-name="close" unicode="&#57418;" d="M172 356l-13-12 85-84-84-84 12-12 84 84 84-84 12 12-84 84 85 84-13 12-84-84z"/>
<glyph glyph-name="check" unicode="&#57419;" d="M256 473c-118 0-213-95-213-213 0-118 95-213 213-213 118 0 213 95 213 213 0 118-95 213-213 213z m0-409c-108 0-196 88-196 196 0 108 88 196 196 196 108 0 196-88 196-196 0-108-88-196-196-196z m107 272l-137-133-48 48c-5 5-13 5-18 0-5-5-5-13 0-18l57-57c2-2 5-3 9-3 3 0 6 1 8 3l146 142c6 5 6 13 1 18-5 5-13 5-18 0z"/>
<glyph glyph-name="download-regular" unicode="&#57420;" d="M0 63l512 0 0-20-512 0z m392 179l-16 16-110-112 0 331-20 0 0-331-110 112-16-16 136-134z"/>
<glyph glyph-name="left-arrow" unicode="&#57425;" d="M258 470c-116 0-210-94-210-210 0-116 94-210 210-210 116 0 210 94 210 210 0 116-94 210-210 210z m0-403c-107 0-193 87-193 193 0 106 86 193 193 193 106 0 193-87 193-193 0-106-87-193-193-193z m-13 283l-12 12-102-102 102-102 12 12-82 82 204 0 0 16-204 0z"/>
<glyph glyph-name="plus" unicode="&#57426;" d="M256 473c-118 0-213-95-213-213 0-118 95-213 213-213 118 0 213 95 213 213 0 118-95 213-213 213z m0-409c-108 0-196 88-196 196 0 108 88 196 196 196 108 0 196-88 196-196 0-108-88-196-196-196z m9 324l-18 0 0-119-118 0 0-18 118 0 0-118 18 0 0 118 119 0 0 18-119 0z"/>
<glyph glyph-name="power" unicode="&#57427;" d="M245 473l17 0 0-204-17 0z m94-34l0-19c62-31 105-95 105-169 0-103-85-187-188-187-103 0-188 84-188 187 0 72 41 135 100 166l0 19c-69-32-117-103-117-185 0-113 92-204 205-204 113 0 205 91 205 204 0 84-50 156-122 188z"/>
<glyph glyph-name="right-arrow" unicode="&#57428;" d="M258 50c116 0 210 94 210 210 0 116-94 210-210 210-116 0-210-94-210-210 0-116 94-210 210-210z m0 403c106 0 193-87 193-193 0-106-87-193-193-193-107 0-193 87-193 193 0 106 86 193 193 193z m12-283l12-12 102 102-102 102-12-12 82-82-203 0 0-16 203 0z"/>
<glyph glyph-name="up-arrow" unicode="&#57429;" d="M468 260c0 116-94 210-210 210-116 0-210-94-210-210 0-116 94-210 210-210 116 0 210 94 210 210z m-403 0c0 106 86 193 193 193 106 0 193-87 193-193 0-106-87-193-193-193-107 0-193 87-193 193z m283 13l12 12-102 102-102-102 12-12 81 82 0-204 17 0 0 204z"/>
<glyph glyph-name="unlock" unicode="&#57430;" d="M375 269l-213 0 0 102c0 52 42 94 94 94 52 0 94-42 94-94l0-34 17 0 0 34c0 61-50 111-111 111-61 0-111-50-111-111l0-102-60 0 0-231 342 0 0 231-52 0z m35-214l-308 0 0 196 308 0z"/>
<glyph glyph-name="lock" unicode="&#57431;" d="M367 269l0 102c0 61-50 111-111 111-61 0-111-50-111-111l0-102-60 0 0-231 342 0 0 231-60 0z m-205 102c0 52 42 94 94 94 52 0 94-42 94-94l0-102-188 0z m248-316l-308 0 0 196 308 0z"/>
<glyph glyph-name="less" unicode="&#57432;" d="M256 473c-118 0-213-95-213-213 0-118 95-213 213-213 118 0 213 95 213 213 0 118-95 213-213 213z m0-409c-108 0-196 88-196 196 0 108 88 196 196 196 108 0 196-88 196-196 0-108-88-196-196-196z m-110 205l221 0 0-18-221 0z"/>
<glyph glyph-name="like" unicode="&#57433;" d="M350 434c57 0 102-46 102-102 0-29-12-55-31-73l-165-166-168 169c-17 18-28 43-28 70 0 56 46 102 102 102 42 0 79-26 94-63 15 37 52 63 94 63z m0 17c-37 0-72-17-94-46-22 29-57 46-94 46-66 0-119-53-119-119 0-31 12-60 33-82l180-181 177 177c23 23 36 53 36 86 0 66-53 119-119 119z"/>
<glyph glyph-name="basic-lock" unicode="&#57434;" d="M392 380c0 75-61 136-136 136-75 0-136-61-136-136l0-120-64 0 0-256 400 0 0 256-64 0z m-256 0c0 66 54 120 120 120 66 0 120-54 120-120l0-120-240 0z m304-360l-368 0 0 224 368 0z m-192 81l0-25 16 0 0 25c18 4 32 20 32 39 0 22-18 40-40 40-22 0-40-18-40-40 0-19 14-35 32-39z m8 63c13 0 24-11 24-24 0-13-11-24-24-24-13 0-24 11-24 24 0 13 11 24 24 24z"/>
<glyph glyph-name="basic-lock-open" unicode="&#57435;" d="M136 380c0 66 54 120 120 120 66 0 120-54 120-120l0-24 16 0 0 24c0 75-61 136-136 136-75 0-136-61-136-136l0-120-64 0 0-256 400 0 0 256-320 0z m304-360l-368 0 0 224 368 0z m-192 81l0-25 16 0 0 25c18 4 32 20 32 39 0 22-18 40-40 40-22 0-40-18-40-40 0-19 14-35 32-39z m8 63c13 0 24-11 24-24 0-13-11-24-24-24-13 0-24 11-24 24 0 13 11 24 24 24z"/>
<glyph glyph-name="bell-regular" unicode="&#57436;" d="M440 213l0 119c0 102-82 184-184 184-102 0-184-82-184-184l0-119-61-147 184 0c0-35 26-62 61-62 35 0 61 27 61 62l184 0z m-184 282c90 0 164-73 164-163l0-103-328 0 0 103c0 90 74 163 164 163z m0-470c-22 0-41 18-41 41l82 0c0-23-19-41-41-41z m-184 61l-31 0 49 119 2 4 328 0 2-4 49-119z"/>
<glyph glyph-name="bell" unicode="&#57437;" d="M401 174l0 137c0 71-51 131-119 143l0 11c0 9-8 17-17 17l-18 0c-9 0-17-8-17-17l0-11c-67-12-119-72-119-143l0-137-60-48 0-28 410 0 0 28-60 48z m43-59l-376 0 0 2 60 49 0 145c0 71 58 128 128 128 71 0 128-57 128-128l0-145 60-49z m-188-77c24 0 43 19 43 43l-86 0c0-24 19-43 43-43z"/>
<glyph glyph-name="bottom-arrow" unicode="&#57438;" d="M48 260c0-116 94-210 210-210 116 0 210 94 210 210 0 116-94 210-210 210-116 0-210-94-210-210z m403 0c0-106-87-193-193-193-107 0-193 87-193 193 0 106 86 193 193 193 106 0 193-87 193-193z m-283-13l-12-12 102-102 102 102-12 12-82-82 0 204-17 0 0-204z"/>
<glyph glyph-name="megaphone-regular" unicode="&#57439;" d="M440 332l0 184-430-184 0-123 62-27 0-178 123 0 0 125 245-104 0 184c35 0 62 26 62 61 0 35-27 62-62 62z m-409-15l286 123 0-342-286 123z m143-292l-82 0 0 149 82-35z m246 30l-82 35 0 360 82 35z m20 174l0 82c23 0 41-18 41-41 0-22-18-41-41-41z"/>
<glyph glyph-name="mute" unicode="&#57440;" d="M453 443l-12 11-114-114 0 93-123-98-96 0 0-151 63 0-107-107 12-11 118 118 1 0 16 16 99 100 0-1 17 17 126 127z m-328-242l0 117 85 0 100 80 0-75-123-122z m185 0l0-78-86 67-12-12 115-90 0 204-17-17z"/>
<glyph glyph-name="musiclist" unicode="&#57441;" d="M43 379l222 0 0-17-222 0z m0-76l222 0 0-17-222 0z m0-77l222 0 0-17-222 0z m307 143l119-15c0 85-68 102-136 119l0-324c-10 0-27 0-53 0-50 0-67-26-67-51 0-20 16-51 69-51 75 0 68 60 68 102z m101 4l-101 13 0 65c57-15 93-32 101-78z m-131-297c-7-8-20-12-38-12-49 0-52 29-52 34 0 22 19 34 50 34l53 0 0-13c-1-17-3-34-13-43z"/>
<glyph glyph-name="volume" unicode="&#57442;" d="M250 432l-123-98-95 0 0-151 96 0 122-97 0 346z m-17-233l0-78-100 78-84 0 0 118 84 0 100 80z m56 145c19-24 28-53 28-84 0-31-10-60-29-85l14-10c21 28 32 61 32 95 0 35-11 67-31 94l-14-10z m68 61l-13-11c32-38 49-86 49-136 0-49-16-95-47-133l13-11c33 42 51 91 51 144 0 54-19 106-53 147z m52 55l-12-11c46-53 71-121 71-191 0-69-24-135-69-187l13-11c47 55 73 125 73 198 0 74-27 146-76 202z"/>
<glyph glyph-name="volume1" unicode="&#57443;" d="M179 303l0-86 70 0 58-58 0 202-58-58z m82-12l29 28 0-118-34 33-60 0 0 52 60 0z m166 96l-14-10c25-33 39-73 39-117 0-44-14-84-39-117l14-10c27 35 42 79 42 127 0 48-15 92-42 127z m-41-224c20 27 32 61 32 97 0 36-12 70-32 97l-14-11c18-24 29-54 29-86 0-32-11-62-29-86z m-41 31c14 18 22 41 22 66 0 25-8 48-22 66l-14-10c12-16 19-35 19-56 0-21-7-40-19-56z m-89-130c-108 0-196 88-196 196 0 108 88 196 196 196 54 0 103-22 138-57l12 12c-38 38-91 62-150 62-118 0-213-95-213-213 0-118 95-213 213-213 59 0 112 24 150 62l-12 12c-35-35-84-57-138-57z"/>
<glyph glyph-name="volume2" unicode="&#57444;" d="M179 303l0-86 70 0 58-58 0 202-58-58z m82-12l29 28 0-118-34 33-60 0 0 52 60 0z m-5 182c-118 0-213-95-213-213 0-118 95-213 213-213 118 0 213 95 213 213 0 118-95 213-213 213z m0-409c-108 0-196 88-196 196 0 108 88 196 196 196 108 0 196-88 196-196 0-108-88-196-196-196z"/>
<glyph glyph-name="airplay" unicode="&#57445;" d="M461 439l-410 0 0-256 139 0-88-102 308 0-88 102 139 0z m-321-341l116 136 116-136z m304 102l-137 0-51 60-51-60-137 0 0 222 376 0 0-222z"/>
<glyph glyph-name="basic-elaboration-tablet-search" unicode="&#57446;" d="M232 244c13 0 24 4 33 11l57-57 12 12-57 57c7 9 11 20 11 33 0 31-25 56-56 56-31 0-56-25-56-56 0-31 25-56 56-56z m0 96c22 0 40-18 40-40 0-22-18-40-40-40-22 0-40 18-40 40 0 22 18 40 40 40z m200 176l-352 0 0-512 352 0z m-16-16l0-48-320 0 0 48z m0-64l0-320-320 0 0 320z m-320-416l0 80 320 0 0-80z m128 464l64 0 0-16-64 0z m32-400c-13 0-24-11-24-24 0-13 11-24 24-24 13 0 24 11 24 24 0 13-11 24-24 24z m0-32c-4 0-8 4-8 8 0 4 4 8 8 8 4 0 8-4 8-8 0-4-4-8-8-8z"/>
<glyph glyph-name="basic-elaboration-tablet-refresh" unicode="&#57447;" d="M256 196l16 0-14-19 13-10 25 32 0 10-25 32-13-10 14-19-16 0c-32 0-56 34-56 64l-16 0c0-38 31-80 72-80z m14 125l-14 19 16 0c32 0 56-34 56-64l16 0c0 38-31 80-72 80l-16 0 14 19-13 10-25-32 0-10 25-32z m162 195l-352 0 0-512 352 0z m-16-16l0-48-320 0 0 48z m0-64l0-320-320 0 0 320z m-320-416l0 80 320 0 0-80z m128 464l64 0 0-16-64 0z m32-400c-13 0-24-11-24-24 0-13 11-24 24-24 13 0 24 11 24 24 0 13-11 24-24 24z m0-32c-4 0-8 4-8 8 0 4 4 8 8 8 4 0 8-4 8-8 0-4-4-8-8-8z"/>
<glyph glyph-name="basic-elaboration-tablet-picture" unicode="&#57448;" d="M344 212l0 128-176 0 0-128z m-160 21l47 47 32-40 17 17 36-29-132 0z m128 91c9 0 16-7 16-16 0-9-7-16-16-16-9 0-16 7-16 16 0 9 7 16 16 16z m-28 0c-2-5-4-10-4-16 0-18 14-32 32-32 6 0 11 2 16 4l0-42-48 41-15-15-32 40-49-49 0 69z m148 192l-352 0 0-512 352 0z m-16-16l0-48-320 0 0 48z m0-64l0-320-320 0 0 320z m-320-416l0 80 320 0 0-80z m128 464l64 0 0-16-64 0z m32-400c-13 0-24-11-24-24 0-13 11-24 24-24 13 0 24 11 24 24 0 13-11 24-24 24z m0-32c-4 0-8 4-8 8 0 4 4 8 8 8 4 0 8-4 8-8 0-4-4-8-8-8z"/>
<glyph glyph-name="basic-elaboration-tablet-pencil" unicode="&#57449;" d="M220 197l127 127-43 43-127-127-11-54z m105 127l-13-13-21 21 13 13z m-134-92l89 89 21-21-89-89-26-5z m241 284l-352 0 0-512 352 0z m-16-16l0-48-320 0 0 48z m0-64l0-320-320 0 0 320z m-320-416l0 80 320 0 0-80z m128 464l64 0 0-16-64 0z m32-400c-13 0-24-11-24-24 0-13 11-24 24-24 13 0 24 11 24 24 0 13-11 24-24 24z m0-32c-4 0-8 4-8 8 0 4 4 8 8 8 4 0 8-4 8-8 0-4-4-8-8-8z"/>
<glyph glyph-name="basic-tablet" unicode="&#57450;" d="M432 516l-352 0 0-512 352 0z m-16-16l0-48-320 0 0 48z m0-64l0-320-320 0 0 320z m-320-416l0 80 320 0 0-80z m128 464l64 0 0-16-64 0z m32-400c-13 0-24-11-24-24 0-13 11-24 24-24 13 0 24 11 24 24 0 13-11 24-24 24z m0-32c-4 0-8 4-8 8 0 4 4 8 8 8 4 0 8-4 8-8 0-4-4-8-8-8z"/>
<glyph glyph-name="computer-imac-2" unicode="&#57451;" d="M469 473l-426 0c-24 0-43-20-43-44l0-316c0-25 19-45 43-45l202 0 0-21-138 0c-6 0-11-5-11-11 0-6 5-11 11-11l298 0c6 0 11 5 11 11 0 6-5 11-11 11l-138 0 0 21 202 0c24 0 43 20 43 45l0 316c0 24-19 44-43 44z m-426-21l426 0c12 0 22-10 22-23l0-254-470 0 0 254c0 13 10 23 22 23z m426-363l-426 0c-12 0-22 11-22 24l0 40 470 0 0-40c0-13-10-24-22-24z m-192 32c0-11-9-21-21-21-12 0-21 10-21 21 0 12 9 22 21 22 12 0 21-10 21-22z"/>
<glyph glyph-name="display-regular" unicode="&#57452;" d="M512 143l0 341-512 0 0-341 192 0 0-86-85 0 0-21 298 0 0 21-85 0 0 86z m-491 320l470 0 0-299-470 0z m278-406l-86 0 0 86 86 0z"/>
<glyph glyph-name="iphone-streamline" unicode="&#57453;" d="M373 516l-234 0c-30 0-54-24-54-53l0-406c0-29 24-53 54-53l234 0c30 0 54 24 54 53l0 406c0 29-24 53-54 53z m-266-107l298 0 0-298-298 0z m32 86l234 0c18 0 32-15 32-32l0-32-298 0 0 32c0 17 14 32 32 32z m234-470l-234 0c-18 0-32 15-32 32l0 32 298 0 0-32c0-17-14-32-32-32z m-96 32c0-11-9-21-21-21-12 0-21 10-21 21 0 12 9 22 21 22 12 0 21-10 21-22z m-74 395l106 0c6 0 11 5 11 11 0 6-5 10-11 10l-106 0c-6 0-11-4-11-10 0-6 5-11 11-11z"/>
<glyph glyph-name="ipad-streamline" unicode="&#57454;" d="M416 516l-320 0c-29 0-53-24-53-53l0-406c0-29 24-53 53-53l320 0c29 0 53 24 53 53l0 406c0 29-24 53-53 53z m32-459c0-17-14-32-32-32l-320 0c-18 0-32 15-32 32l0 406c0 17 14 32 32 32l320 0c18 0 32-15 32-32z m-169 0c0-11-9-21-21-21-12 0-22 10-22 21 0 12 10 22 22 22 12 0 21-10 21-22z m137 395l-320 0c-6 0-11-5-11-11l0-341c0-6 5-11 11-11l320 0c6 0 11 5 11 11l0 341c0 6-5 11-11 11z m-11-341l-298 0 0 320 298 0z m-137 362c0-6-4-10-10-10-6 0-11 4-11 10 0 6 5 11 11 11 6 0 10-5 10-11z"/>
<glyph glyph-name="ipad-regular" unicode="&#57455;" d="M59 516l0-512 394 0 0 512z m374-20l0-39-354 0 0 39z m0-59l0-315-354 0 0 315z m-354-413l0 78 354 0 0-78z m193 39c0-9-7-16-16-16-9 0-16 7-16 16 0 9 7 16 16 16 9 0 16-7 16-16z"/>
<glyph glyph-name="macbook-regular" unicode="&#57456;" d="M444 192l0 222-376 0 0-222-68-68 0-18 512 0 0 18z m-359 205l342 0 0-205-342 0z m-61-273l51 51 362 0 51-51z m61 34l-17-17 376 0-17 17z"/>
<glyph glyph-name="monitor" unicode="&#57457;" d="M478 149l0 307-444 0 0-307 213 0 0-68-59 0 0-17 136 0 0 17-59 0 0 68z m-427 290l410 0 0-273-410 0z"/>
<glyph glyph-name="micro" unicode="&#57458;" d="M256 158c52 0 94 42 94 94l0 170c0 52-42 93-94 93-52 0-94-41-94-93l0-170c0-52 42-94 94-94z m-77 264c0 42 35 76 77 76 42 0 77-34 77-76l0-170c0-43-35-77-77-77-42 0-77 34-77 77z m205-85l0-85c0-71-58-128-128-128-70 0-128 57-128 128l0 85-17 0 0-85c0-78 61-141 138-145l-1 0 0-85-77 0 0-17 170 0 0 17-76 0 0 85-2 0c77 4 138 67 138 145l0 85z"/>
<glyph glyph-name="unie16d" unicode="&#57459;" d="M323 27l0 350 186 0 0-350z m175 339l-164 0 0-33 164 0z m0-44l-164 0 0-218 164 0z m0-229l-164 0 0-55 164 0z m-82-11c5 0 8-2 12-5 3-3 4-7 4-11 0-5-1-9-4-12-4-3-7-5-12-5-5 0-8 2-12 5-3 3-4 7-4 12 0 4 1 8 4 11 4 3 7 5 12 5z m0-22c4 0 5 2 5 6 0 3-1 5-5 5-4 0-5-2-5-5 0-4 1-6 5-6z m22 284l-44 0 0 11 44 0z m-438 149l320 0 0-466-320 0z m15-451l290 0 0 73-290 0z m0 87l290 0 0 291-290 0z m0 306l290 0 0 43-290 0z m116 29l58 0 0-15-58 0z m29-407c-6 0-11 2-15 6-5 4-7 9-7 15 0 6 2 12 7 16 4 4 9 6 15 6 6 0 11-2 15-6 5-4 7-10 7-16 0-6-2-11-7-15-4-4-9-6-15-6z m0 29c-5 0-7-3-7-8 0-5 2-7 7-7 5 0 7 2 7 7 0 5-2 8-7 8z"/>
<glyph glyph-name="achievement-regular" unicode="&#57460;" d="M374 260l0 41c40 4 69 38 69 77 0 39-29 73-69 77l0 61-236 0 0-61c-40-4-69-37-69-77 0-39 29-73 69-77l0-41c0-61 47-112 108-118l0-40-88 0 0-39-40 0 0-59 276 0 0 59-40 0 0 39-88 0 0 40c61 6 108 57 108 118z m0-217l0-19-236 0 0 19z m-39 20l-158 0 0 20 158 0z m88 315c0-29-21-53-49-57l0 114c28-4 49-27 49-57z m-334 0c0 30 21 53 49 57l0-116c-28 6-49 30-49 59z m69-118l0 236 196 0 0-236c0-55-43-98-98-98-55 0-98 43-98 98z"/>
<glyph glyph-name="browser" unicode="&#57461;" d="M43 473l0-426 426 0 0 426z m409-17l0-68-392 0 0 68z m-392-392l0 307 392 0 0-307z m94 367l264 0 0-17-264 0z m-69 0l17 0 0-17-17 0z m35 0l17 0 0-17-17 0z"/>
<glyph glyph-name="box1" unicode="&#57462;" d="M461 452l-410 0 0-111 17 0 0-273 376 0 0 273 17 0z m-34-367l-342 0 0 256 342 0z m17 273l-376 0 0 77 376 0z m-250-128l124 0c18 0 32 14 32 31l0 6c0 17-14 31-32 31l-124 0c-17 0-32-14-32-31l0-6c0-17 15-31 32-31z m-15 37c0 8 7 14 15 14l124 0c8 0 15-6 15-14l0-6c0-8-7-14-15-14l-124 0c-8 0-15 6-15 14z"/>
<glyph glyph-name="basic-webpage-img-txt" unicode="&#57463;" d="M0 52l512 0 0 416-512 0z m16 16l0 320 480 0 0-320z m480 384l0-48-480 0 0 48z m-448-16l32 0 0-16-32 0z m64 0l32 0 0-16-32 0z m64 0l32 0 0-16-32 0z m-128-112l216 0 0-16-216 0z m0-64l216 0 0-16-216 0z m0-64l216 0 0-16-216 0z m248-16l168 0 0 144-168 0z m16 128l136 0 0-112-136 0z"/>
<glyph glyph-name="basic-webpage-txt" unicode="&#57464;" d="M48 324l416 0 0-16-416 0z m0-64l416 0 0-16-416 0z m0-64l416 0 0-16-416 0z m464 272l-512 0 0-416 512 0z m-16-16l0-48-480 0 0 48z m-480-384l0 320 480 0 0-320z m32 368l32 0 0-16-32 0z m64 0l32 0 0-16-32 0z m64 0l32 0 0-16-32 0z"/>
<glyph glyph-name="basic-postcard-multiple" unicode="&#57465;" d="M440 364l-440 0 0-288 440 0z m-16-272l-408 0 0 256 408 0z m-336 328l408 0 0-256-40 0 0-16 56 0 0 288-440 0 0-56 16 0z m312-96l-72 0 0-80 72 0z m-16-64l-40 0 0 48 40 0z m-128 64l16 0 0-208-16 0z m-216-16l192 0 0-16-192 0z m0-40l168 0 0-16-168 0z m0-40l176 0 0-16-176 0z"/>
<glyph glyph-name="id" unicode="&#57466;" d="M309 319l117 0 0-17-117 0z m0-101l117 0 0-17-117 0z m0 50l83 0 0-16-83 0z m-17 151l0 51-67 0 0-51-185 0 0-369 436 0 0 369z m168-16l0-34-168 0 0 34z m-219 50l34 0 0-84-34 0z m-184-50l168 0 0-34-168 0z m0-336l0 285 403 0 0-285z m230 75c-12 5-40 15-58 20-2 0-2 0-2 7 0 5 2 10 4 14 3 5 5 13 6 21 3 3 7 9 9 21 2 10 1 14 0 17 0 1 0 1-1 1 0 3 1 15 2 25 2 7 0 21-9 33-6 7-17 16-38 18l-11 0c-20-2-31-11-37-18-9-12-10-26-9-33 2-10 2-22 2-25 0 0-1 0-1-1-1-3-2-7 0-17 2-12 6-18 9-21 1-8 3-16 6-21 1-3 2-8 2-15 0-6 0-6-2-6-18-6-47-16-58-21-9-4-11-10-11-16 0-2 0-5 0-8l17 0 0 8c0 0 1 0 1 0 10 5 39 15 57 21 13 4 13 16 13 22 0 10-1 17-4 23-2 3-4 10-5 15l0 5-4 4c0 0-3 3-4 13-2 6-1 7-1 8 0 1 1 2 1 4 2 7 0 24-2 31 0 3 0 12 7 20 5 6 13 10 24 11l10 0c11-1 19-5 25-11 6-8 6-17 6-20-2-7-3-24-2-31l0-2c1 0 1-1 1-2 0-1 1-2 0-8-2-10-5-13-5-13l-4-4 0-5c-1-5-3-12-5-15-2-6-6-14-6-22 0-6 0-19 14-23 17-5 45-15 57-20 2-1 2-2 2-2l0-7 17 0c0 3 0 6 0 8 0 6-4 13-13 17z"/>
<glyph glyph-name="bookmark-regular" unicode="&#57467;" d="M118 398l-98 0 0-20 98 0 0-39-98 0 0-20 98 0 0-39-98 0 0-20 98 0 0-39-98 0 0-20 98 0 0-197 138 138 138-138 0 197 98 0 0 20-98 0 0 39 98 0 0 20-98 0 0 39 98 0 0 20-98 0 0 39 98 0 0 20z m256-347l-104 105-14 13-14-13-104-105 0 327 236 0z m-354 465l472 0 0-20-472 0z m0-59l472 0 0-20-472 0z"/>
<glyph glyph-name="calculator-regular" unicode="&#57468;" d="M154 250c0-9-7-16-16-16-9 0-16 7-16 16 0 9 7 16 16 16 9 0 16-7 16-16z m59 0c0-9-7-16-16-16-9 0-16 7-16 16 0 9 7 16 16 16 9 0 16-7 16-16z m-59-59c0-9-7-16-16-16-9 0-16 7-16 16 0 9 7 16 16 16 9 0 16-7 16-16z m59 0c0-9-7-16-16-16-9 0-16 7-16 16 0 9 7 16 16 16 9 0 16-7 16-16z m-59-59c0-9-7-16-16-16-9 0-16 7-16 16 0 9 7 16 16 16 9 0 16-7 16-16z m59 0c0-9-7-16-16-16-9 0-16 7-16 16 0 9 7 16 16 16 9 0 16-7 16-16z m-59-59c0-9-7-16-16-16-9 0-16 7-16 16 0 9 7 16 16 16 9 0 16-7 16-16z m59 0c0-9-7-16-16-16-9 0-16 7-16 16 0 9 7 16 16 16 9 0 16-7 16-16z m59 177c0-9-7-16-16-16-9 0-16 7-16 16 0 9 7 16 16 16 9 0 16-7 16-16z m59 0c0-9-7-16-16-16-9 0-16 7-16 16 0 9 7 16 16 16 9 0 16-7 16-16z m59 0c0-9-7-16-16-16-9 0-16 7-16 16 0 9 7 16 16 16 9 0 16-7 16-16z m-118-59c0-9-7-16-16-16-9 0-16 7-16 16 0 9 7 16 16 16 9 0 16-7 16-16z m59 0c0-9-7-16-16-16-9 0-16 7-16 16 0 9 7 16 16 16 9 0 16-7 16-16z m59 0c0-9-7-16-16-16-9 0-16 7-16 16 0 9 7 16 16 16 9 0 16-7 16-16z m-118-59c0-9-7-16-16-16-9 0-16 7-16 16 0 9 7 16 16 16 9 0 16-7 16-16z m59 0c0-9-7-16-16-16-9 0-16 7-16 16 0 9 7 16 16 16 9 0 16-7 16-16z m-59-59c0-9-7-16-16-16-9 0-16 7-16 16 0 9 7 16 16 16 9 0 16-7 16-16z m59 0c0-9-7-16-16-16-9 0-16 7-16 16 0 9 7 16 16 16 9 0 16-7 16-16z m-272 443l0-512 394 0 0 512z m20-118l354 0 0-79-354 0z m354-374l-354 0 0 275 354 0z m-354 394l0 78 354 0 0-78z m285-276l20 0 0-79-20 0z m-167 315l118 0 0-20-118 0z"/>
<glyph glyph-name="calculator" unicode="&#57469;" d="M137 354l238 0 0 68-238 0z m17 51l204 0 0-34-204 0z m221 60l-238 0c-19 0-35-16-35-34l0-342c0-18 16-34 35-34l238 0c19 0 35 16 35 34l0 342c0 18-16 34-35 34z m17-376c0-9-7-17-17-17l-238 0c-10 0-17 8-17 17l0 342c0 9 7 17 17 17l238 0c10 0 17-8 17-17z m-238 188l0 51-17 0 0-68 68 0 0 17z m0-85l0 51-17 0 0-68 68 0 0 17z m0-86l0 52-17 0 0-69 68 0 0 17z m85 171l0 51-17 0 0-68 68 0 0 17z m85 0l0 51-17 0 0-68 68 0 0 17z m-85-85l0 51-17 0 0-68 68 0 0 17z m0-86l0 52-17 0 0-69 68 0 0 17z m85 0l0 137-17 0 0-154 68 0 0 17z"/>
<glyph glyph-name="phone" unicode="&#57470;" d="M369 490l-226 0c-13 0-23-10-23-23l0-414c0-13 10-23 23-23l226 0c13 0 23 10 23 23l0 414c0 13-10 23-23 23z m6-437c0-4-2-6-6-6l-226 0c-4 0-6 2-6 6l0 79 238 0z m0 96l-238 0 0 273 238 0z m0 290l-238 0 0 28c0 4 2 6 6 6l226 0c4 0 6-2 6-6z m-145-341l52 0 0-17-52 0z"/>
<glyph glyph-name="photo" unicode="&#57471;" d="M40 465l0-410 427 0 0 410z m17-258l120 126 118-119 60 51 89-90-387 0z m393-135l-393 0 0 86 393 0z m0 121l-93 96-60-51-120 119-120-125 0 216 393 0z m-94 135c24 0 42 19 42 43 0 24-18 43-42 43-24 0-43-19-43-43 0-24 19-43 43-43z m0 69c14 0 25-12 25-26 0-15-11-26-25-26-15 0-26 11-26 26 0 14 11 26 26 26z"/>
<glyph glyph-name="suitcase-regular" unicode="&#57472;" d="M354 418l0 39-196 0 0-39-158 0 0-355 512 0 0 355z m-177 19l158 0 0-19-158 0z m315-354l-472 0 0 315 39 0 0-40 20 0 0 40 354 0 0-40 20 0 0 40 39 0z"/>
<glyph glyph-name="ribbon" unicode="&#57473;" d="M94 465l0-410 162 120 162-120 0 410z m307-376l-145 107-145-107 0 359 290 0z m-230 273l170 0 0-17-170 0z m0-68l170 0 0-17-170 0z"/>
<glyph glyph-name="photo-gallery" unicode="&#57474;" d="M427 379l0 69-401 0 0-307 59 0 0-69 401 0 0 307z m-384-221l0 273 367 0 0-52-325 0 0-221z m426-69l-367 0 0 273 367 0z"/>
<glyph glyph-name="package-regular" unicode="&#57475;" d="M439 425l-366 0-73-74 0-256 512 0 0 256z m47-74l-221 0 0 55 166 0z m-405 55l166 0 0-55-221 0z m-63-292l0 219 476 0 0-36-183 0 0-110 183 0 0-73z m476 164l0-73-165 0 0 73z m-439-73l146 0 0-18-146 0z m0-36l110 0 0-19-110 0z m0 73l73 0 0-19-73 0z"/>
<glyph glyph-name="note2" unicode="&#57476;" d="M157 289l201 0 0-16-201 0z m0-67l201 0 0-17-201 0z m0-67l134 0 0-17-134 0z m150 302c-4 24-25 42-50 42-25 0-45-18-49-42l-152 0 0-436 403 0 0 436z m-83-38l0 30c0 18 15 33 33 33 19 0 34-15 34-33l0-30 8-5c17-10 30-24 37-41l-157 0c7 17 20 31 36 41z m218-381l-369 0 0 402 134 0 0-12c-26-14-45-41-50-71l201 0c-5 30-24 57-50 71l0 12 134 0z"/>
<glyph glyph-name="note" unicode="&#57477;" d="M444 449c-5 5-11 7-18 7-6 0-13-2-18-7l-75-75 0 14-273 0 0-324 324 0 0 273-16 0 76 76c10 10 10 26 0 36z m-77-368l-290 0 0 290 253 0-134-134 0-37 36 0 135 135z m65 344l-207-208-11 0 0 13 206 207c3 2 5 2 6 2 2 0 4 0 6-2 3-2 3-5 3-6 0-2 0-4-3-6z"/>
<glyph glyph-name="next-2" unicode="&#57478;" d="M494 373l-171 116 0-64-307 0 0-393 393 0 0 283z m-154 83l123-82-123-84 0 62-30 0c-1 0-1 0-2 0-31 0-94-6-143-46 23 56 76 101 156 101 0 0 1 0 1 0 0 0 0 0 1 0l17 0 0 16c0 0 0 0 0 1l0 32z m51-408l-358 0 0 359 207 0c-68-30-105-98-105-169 40 87 131 98 173 98 6 0 11 0 15-1l0-77 68 46z"/>
<glyph glyph-name="mail-open-file" unicode="&#57479;" d="M468 303l-186 185c-7 7-16 11-26 11-10 0-19-4-26-11l-41-40-61 0 0-62-85-85 0-280 426 0 0 280-1 2z m-18-7l-66-66 0 132z m-208 180c7 8 21 8 28 0l28-28-84 0z m74-45l51-52 0-166-40-40-45 46c-7 7-16 11-26 11-10 0-19-4-26-11l-46-46-39 39 0 219 170 0z m-246-127l58 58 0-133-67 66z m-10-45l0 14 112-112-1-2-111-110z m13-221l10 9 159 160c7 7 21 7 28 0l169-169z m379 232l0-221-113 112 113 113z m-256 109l120 0 0-17-120 0z m0-102l120 0 0-17-120 0z m0 51l86 0 0-17-86 0z"/>
<glyph glyph-name="mail-open" unicode="&#57480;" d="M468 303l-186 185c-7 7-16 11-26 11-10 0-19-4-26-11l-187-187 0-280 426 0 0 280-1 2z m-398 1l172 172c7 8 21 8 28 0l180-180-123-123-45 46c-7 7-16 11-26 11-10 0-19-4-26-11l-46-46-123 122z m102-143l-1-2-111-110 0 224 112-112z m-99-123l10 9 159 160c7 7 21 7 28 0l169-169z m379 229l0-218-113 112 113 113z"/>
<glyph glyph-name="mail" unicode="&#57481;" d="M452 396l-409 0 0-272 426 0 0 272z m-17-17l-165-164c-7-8-21-8-28 0l-165 164z m-375-6l111-111-111-111z m13-232l110 109 47-47c7-7 16-11 26-11 10 0 19 4 26 11l47 47 110-109z m379 10l-111 111 111 111z"/>
<glyph glyph-name="at-regular2" unicode="&#57482;" d="M256 516c-141 0-256-115-256-256 0-141 115-256 256-256 38 0 75 9 107 23l0 24c-32-17-69-26-107-26-130 0-235 105-235 235 0 130 105 235 235 235 130 0 235-105 235-235 0-38-9-75-26-107l-81 0 0 107c0 70-58 128-128 128-71 0-128-58-128-128 0-70 57-128 128-128 45 0 83 23 107 58l0-58 115 0c21 38 34 81 34 128 0 141-115 256-256 256z m0-363c-60 0-107 47-107 107 0 60 47 107 107 107 60 0 107-47 107-107 0-60-47-107-107-107z"/>
<glyph glyph-name="chat" unicode="&#57483;" d="M341 345l0 128-298 0 0-230 128 0 0-128 177 0 68-68 11 0 0 68 42 0 0 230z m-281-85l0 196 264 0 0-111-153 0 0-85z m392-128l-42 0 0-55-55 55-167 0 0 196 264 0 0-196z"/>
<glyph glyph-name="camera-regular" unicode="&#57484;" d="M384 427l-39 40-109 0-39-40-197 0 0-374 512 0 0 374z m108-354l-472 0 0 335 185 0 39 39 93 0 39-39 116 0z m-334 177c0-77 61-138 137-138 77 0 138 61 138 138 0 77-61 138-138 138-76 0-137-61-137-138z m256 0c0-65-54-118-119-118-65 0-118 53-118 118 0 65 53 118 118 118 65 0 119-53 119-118z m-197 0l19 0c0 34 26 59 59 59l0 20c-43 0-78-36-78-79z m-132 108c0-8-7-15-16-15-9 0-16 7-16 15 0 9 7 16 16 16 9 0 16-7 16-16z"/>
<glyph glyph-name="camera" unicode="&#57485;" d="M435 371l-70 0-41 41c-1 0-1 0-1 0-6 6-14 10-24 10l-85 0c-10 0-19-4-25-11l-40-40-72 0c-19 0-34-15-34-34l0-205c0-19 15-34 34-34l358 0c19 0 34 15 34 34l0 205c0 19-15 34-34 34z m17-239c0-9-7-17-17-17l-358 0c-10 0-17 8-17 17l0 205c0 9 7 17 17 17l79 0 26 26 0-2 20 21c3 4 7 6 12 6l85 0c5 0 9-2 12-5l46-46 78 0c10 0 17-8 17-17z m-196 222c-61 0-111-50-111-111 0-61 50-111 111-111 61 0 111 50 111 111 0 61-50 111-111 111z m0-205c-52 0-94 42-94 94 0 52 42 94 94 94 52 0 94-42 94-94 0-52-42-94-94-94z m0 171c-42 0-77-35-77-77 0-42 35-77 77-77 42 0 77 35 77 77 0 42-35 77-77 77z m0-137c-33 0-60 27-60 60 0 33 27 60 60 60 33 0 60-27 60-60 0-33-27-60-60-60z"/>
<glyph glyph-name="camcorder-regular" unicode="&#57486;" d="M512 209l-62 0 0 61-34 0c32 23 55 60 55 103 0 67-55 122-123 122-51 0-94-30-112-73-19 43-62 73-113 73-68 0-123-55-123-122 0-43 23-80 55-103l-34 0 0-245 429 0 0 61 62 0z m-164 266c57 0 102-45 102-102 0-58-45-103-102-103-57 0-102 45-102 103 0 57 45 102 102 102z m-67-205l-90 0c20 13 34 31 45 53 10-22 24-40 45-53z m-260 103c0 57 45 102 102 102 57 0 102-45 102-102 0-58-45-103-102-103-57 0-102 45-102 103z m409-328l-389 0 0 205 389 0z m61 61l-41 0 0 82 41 0z"/>
<glyph glyph-name="iphone-regular" unicode="&#57487;" d="M128 516l0-512 256 0 0 512z m238-19l0-36-220 0 0 36z m0-54l0-329-220 0 0 329z m-220-420l0 73 220 0 0-73z m125 36c0-8-7-14-15-14-8 0-15 6-15 14 0 8 7 15 15 15 8 0 15-7 15-15z"/>
<glyph glyph-name="photobucket" unicode="&#57488;" d="M465 406l-128 0c-24 13-52 20-81 20-29 0-57-7-81-20l-45 0c0 11-9 20-21 20l-42 0c-11 0-20-9-20-20-12 0-21-10-21-21l0-250c0-11 9-21 21-21l128 0c24-13 52-20 81-20 29 0 57 7 81 20l128 0c12 0 21 10 21 21l0 250c0 11-9 21-21 21z m-418-271l0 250 98 0c-34-31-57-75-57-125 0-50 23-94 57-125z m284 0c-11-6-22-11-35-15 0 0-1 0-2 0-5-2-10-3-15-4-2 0-3 0-5 0-6-1-12-2-18-2-6 0-12 1-18 2-2 0-3 0-5 0-5 1-10 2-15 4-1 0-2 0-2 0-13 4-24 9-35 15-43 26-72 72-72 125 0 53 29 99 72 125 11 6 22 11 35 15 0 0 1 0 2 0 5 2 10 3 15 4 2 0 3 0 5 0 6 1 12 2 18 2 6 0 12-1 18-2 2 0 3 0 5 0 5-1 10-2 15-4 1 0 2 0 2 0 13-4 24-9 35-15 43-26 72-72 72-125 0-53-29-99-72-125z m134 0l-98 0c34 31 57 75 57 125 0 50-23 94-57 125l98 0z m-94 125l-18 0c0 53-43 97-97 97l0 17c64 0 115-51 115-114z"/>
<glyph glyph-name="ecommerce-cent" unicode="&#57489;" d="M256 4c-68 0-133 27-181 75-48 48-75 113-75 181 0 68 27 133 75 181 48 48 113 75 181 75 68 0 133-27 181-75 48-48 75-113 75-181 0-68-27-133-75-181-48-48-113-75-181-75z m0 496c-64 0-124-25-170-70-45-46-70-106-70-170 0-64 25-124 70-170 46-45 106-70 170-70 64 0 124 25 170 70 45 46 70 106 70 170 0 64-25 124-70 170-46 45-106 70-170 70z m0-368c-67 0-104 45-104 128 0 83 37 128 104 128 77 0 87-37 88-38l-16-4c0 0-8 26-72 26-73 0-88-61-88-112 0-51 15-112 88-112 64 0 72 26 72 26l16-4c-1-1-11-38-88-38z m-8 288l16 0 0-320-16 0z"/>
<glyph glyph-name="ecommerce-colon" unicode="&#57490;" d="M256 4c-68 0-133 27-181 75-48 48-75 113-75 181 0 68 27 133 75 181 48 48 113 75 181 75 68 0 133-27 181-75 48-48 75-113 75-181 0-68-27-133-75-181-48-48-113-75-181-75z m0 496c-64 0-124-25-170-70-45-46-70-106-70-170 0-64 25-124 70-170 46-45 106-70 170-70 64 0 124 25 170 70 45 46 70 106 70 170 0 64-25 124-70 170-46 45-106 70-170 70z m0-368c-67 0-104 45-104 128 0 83 37 128 104 128 77 0 87-37 88-38l-16-4c0 0-8 26-72 26-73 0-88-61-88-112 0-51 15-112 88-112 64 0 72 26 72 26l16-4c-1-1-11-38-88-38z m25 275l14-6-120-280-14 6z m40 0l14-6-120-280-14 6z"/>
<glyph glyph-name="ecommerce-tugriks" unicode="&#57491;" d="M256 4c-68 0-133 27-181 75-48 48-75 113-75 181 0 68 27 133 75 181 48 48 113 75 181 75 68 0 133-27 181-75 48-48 75-113 75-181 0-68-27-133-75-181-48-48-113-75-181-75z m0 496c-64 0-124-25-170-70-45-46-70-106-70-170 0-64 25-124 70-170 46-45 106-70 170-70 64 0 124 25 170 70 45 46 70 106 70 170 0 64-25 124-70 170-46 45-106 70-170 70z m-8-120l16 0 0-280-16 0z m-104 8l224 0 0-16-224 0z m164-57l8-14-112-64-8 14z m0-48l8-14-112-64-8 14z"/>
<glyph glyph-name="ecommerce-rupee" unicode="&#57492;" d="M256 4c-68 0-133 27-181 75-48 48-75 113-75 181 0 68 27 133 75 181 48 48 113 75 181 75 68 0 133-27 181-75 48-48 75-113 75-181 0-68-27-133-75-181-48-48-113-75-181-75z m0 496c-64 0-124-25-170-70-45-46-70-106-70-170 0-64 25-124 70-170 46-45 106-70 170-70 64 0 124 25 170 70 45 46 70 106 70 170 0 64-25 124-70 170-46 45-106 70-170 70z m27-390l-123 115 0 19 64 0c1 0 39-3 62 18 12 11 18 26 18 46 0 26-13 45-39 56-20 8-41 8-41 8l-64 0 0 16 64 0c33 0 96-17 96-80 0-25-8-44-23-58-28-26-72-22-74-22l-43 0 113-106z m-123 278l192 0 0-16-192 0z m0-48l192 0 0-16-192 0z"/>
<glyph glyph-name="ecommerce-rublo" unicode="&#57493;" d="M256 4c-68 0-133 27-181 75-48 48-75 113-75 181 0 68 27 133 75 181 48 48 113 75 181 75 68 0 133-27 181-75 48-48 75-113 75-181 0-68-27-133-75-181-48-48-113-75-181-75z m0 496c-64 0-124-25-170-70-45-46-70-106-70-170 0-64 25-124 70-170 46-45 106-70 170-70 64 0 124 25 170 70 45 46 70 106 70 170 0 64-25 124-70 170-46 45-106 70-170 70z m-72-112l16 0 0-256-16 0z m71-160c-5 0-7 0-8 0l-95 0 0 16 96 0c1 0 39-3 62 18 12 11 18 26 18 46 0 20-6 35-18 46-23 21-61 18-61 18l-57 0 0 16 56 0c1 0 45 4 73-22 15-14 23-33 23-58 0-25-8-44-23-58-22-20-52-22-66-22z m-103-32l104 0 0-16-104 0z"/>
<glyph glyph-name="ecommerce-pound" unicode="&#57494;" d="M256 4c-68 0-133 27-181 75-48 48-75 113-75 181 0 68 27 133 75 181 48 48 113 75 181 75 68 0 133-27 181-75 48-48 75-113 75-181 0-68-27-133-75-181-48-48-113-75-181-75z m0 496c-64 0-124-25-170-70-45-46-70-106-70-170 0-64 25-124 70-170 46-45 106-70 170-70 64 0 124 25 170 70 45 46 70 106 70 170 0 64-25 124-70 170-46 45-106 70-170 70z m72-384l-120 0 0 216c0 40 30 64 80 64 45 0 55-28 56-29l-15-6c-1 1-8 19-41 19-24 0-64-6-64-48l0-200 104 0z m-160 16l48 0 0-16-48 0z m0 136l112 0 0-16-112 0z"/>
<glyph glyph-name="ecommerce-pesos" unicode="&#57495;" d="M256 4c-68 0-133 27-181 75-48 48-75 113-75 181 0 68 27 133 75 181 48 48 113 75 181 75 68 0 133-27 181-75 48-48 75-113 75-181 0-68-27-133-75-181-48-48-113-75-181-75z m0 496c-64 0-124-25-170-70-45-46-70-106-70-170 0-64 25-124 70-170 46-45 106-70 170-70 64 0 124 25 170 70 45 46 70 106 70 170 0 64-25 124-70 170-46 45-106 70-170 70z m-72-112l16 0 0-256-16 0z m71-160c-5 0-7 0-8 0l-55 0 0 16 56 0c1 0 39-3 62 18 12 11 18 26 18 46 0 20-6 35-18 46-23 21-61 18-61 18l-57 0 0 16 56 0c1 0 45 4 73-22 15-14 23-33 23-58 0-25-8-44-23-58-22-20-52-22-66-22z m-103 104l224 0 0-16-224 0z m0-32l224 0 0-16-224 0z"/>
<glyph glyph-name="ecommerce-naira" unicode="&#57496;" d="M256 4c-68 0-133 27-181 75-48 48-75 113-75 181 0 68 27 133 75 181 48 48 113 75 181 75 68 0 133-27 181-75 48-48 75-113 75-181 0-68-27-133-75-181-48-48-113-75-181-75z m0 496c-64 0-124-25-170-70-45-46-70-106-70-170 0-64 25-124 70-170 46-45 106-70 170-70 64 0 124 25 170 70 45 46 70 106 70 170 0 64-25 124-70 170-46 45-106 70-170 70z m72-376l-21 0-123 231 0-231-16 0 0 256 21 0 123-231 0 231 16 0z m-192 160l224 0 0-16-224 0z m0-48l224 0 0-16-224 0z"/>
<glyph glyph-name="ecommerce-lira" unicode="&#57497;" d="M256 4c-68 0-133 27-181 75-48 48-75 113-75 181 0 68 27 133 75 181 48 48 113 75 181 75 68 0 133-27 181-75 48-48 75-113 75-181 0-68-27-133-75-181-48-48-113-75-181-75z m0 496c-64 0-124-25-170-70-45-46-70-106-70-170 0-64 25-124 70-170 46-45 106-70 170-70 64 0 124 25 170 70 45 46 70 106 70 170 0 64-25 124-70 170-46 45-106 70-170 70z m72-384l-120 0 0 216c0 40 30 64 80 64 45 0 55-28 56-29l-16-6c0 1-7 19-40 19-24 0-64-6-64-48l0-200 104 0z m-160 16l48 0 0-16-48 0z m0 136l112 0 0-16-112 0z m0-48l112 0 0-16-112 0z"/>
<glyph glyph-name="ecommerce-kips" unicode="&#57498;" d="M256 4c-68 0-133 27-181 75-48 48-75 113-75 181 0 68 27 133 75 181 48 48 113 75 181 75 68 0 133-27 181-75 48-48 75-113 75-181 0-68-27-133-75-181-48-48-113-75-181-75z m0 496c-64 0-124-25-170-70-45-46-70-106-70-170 0-64 25-124 70-170 46-45 106-70 170-70 64 0 124 25 170 70 45 46 70 106 70 170 0 64-25 124-70 170-46 45-106 70-170 70z m-64-112l16 0 0-256-16 0z m146-262l-142 142 135 126 10-12-121-114 130-130z m-178 150l152 0 0-16-152 0z"/>
<glyph glyph-name="ecommerce-guarani" unicode="&#57499;" d="M256 4c-68 0-133 27-181 75-48 48-75 113-75 181 0 68 27 133 75 181 48 48 113 75 181 75 68 0 133-27 181-75 48-48 75-113 75-181 0-68-27-133-75-181-48-48-113-75-181-75z m0 496c-64 0-124-25-170-70-45-46-70-106-70-170 0-64 25-124 70-170 46-45 106-70 170-70 64 0 124 25 170 70 45 46 70 106 70 170 0 64-25 124-70 170-46 45-106 70-170 70z m0-368c-67 0-104 45-104 128 0 83 37 128 104 128 77 0 87-37 88-38l-16-4c0 0-8 26-72 26-73 0-88-61-88-112 0-51 15-112 88-112 58 0 70 21 72 25l0 47-40 0 0 16 56 0 0-66c-1-1-11-38-88-38z m-8 288l16 0 0-320-16 0z"/>
<glyph glyph-name="ecommerce-franc" unicode="&#57500;" d="M256 4c-68 0-133 27-181 75-48 48-75 113-75 181 0 68 27 133 75 181 48 48 113 75 181 75 68 0 133-27 181-75 48-48 75-113 75-181 0-68-27-133-75-181-48-48-113-75-181-75z m0 496c-64 0-124-25-170-70-45-46-70-106-70-170 0-64 25-124 70-170 46-45 106-70 170-70 64 0 124 25 170 70 45 46 70 106 70 170 0 64-25 124-70 170-46 45-106 70-170 70z m-48-368l-16 0 0 248 136 0 0-16-120 0z m-8 136l112 0 0-16-112 0z m-40-48l112 0 0-16-112 0z"/>
<glyph glyph-name="ecommerce-euro" unicode="&#57501;" d="M256 4c-68 0-133 27-181 75-48 48-75 113-75 181 0 68 27 133 75 181 48 48 113 75 181 75 68 0 133-27 181-75 48-48 75-113 75-181 0-68-27-133-75-181-48-48-113-75-181-75z m0 496c-64 0-124-25-170-70-45-46-70-106-70-170 0-64 25-124 70-170 46-45 106-70 170-70 64 0 124 25 170 70 45 46 70 106 70 170 0 64-25 124-70 170-46 45-106 70-170 70z m0-368c-67 0-104 45-104 128 0 83 37 128 104 128 77 0 87-37 88-38l-16-4c0 0-8 26-72 26-73 0-88-61-88-112 0-51 15-112 88-112 64 0 72 26 72 26l16-4c-1-1-11-38-88-38z m-136 152l152 0 0-16-152 0z m0-32l152 0 0-16-152 0z"/>
<glyph glyph-name="ecommerce-dollar" unicode="&#57502;" d="M232 412l16 0 0-312-16 0z m32 0l16 0 0-312-16 0z m-8-272c-33 0-56 6-69 19-11 12-11 24-11 29l16 0c0-4 0-11 7-17 6-7 22-15 57-15 30 0 51 6 62 17 11 11 10 26 10 35 0 2 0 3 0 4 0 0-2 48-72 48-67 0-72 57-72 63 0 4-2 26 13 43 12 15 32 22 59 22 79 0 80-55 80-56l-16 0c0 2-2 40-64 40-22 0-38-5-47-16-11-13-9-31-9-31l0-1c0-2 1-48 56-48 86 0 88-63 88-64 0-1 0-2 0-3 0-11 1-31-14-47-15-15-39-22-74-22z m0-136c-68 0-133 27-181 75-48 48-75 113-75 181 0 68 27 133 75 181 48 48 113 75 181 75 68 0 133-27 181-75 48-48 75-113 75-181 0-68-27-133-75-181-48-48-113-75-181-75z m0 496c-64 0-124-25-170-70-45-46-70-106-70-170 0-64 25-124 70-170 46-45 106-70 170-70 64 0 124 25 170 70 45 46 70 106 70 170 0 64-25 124-70 170-46 45-106 70-170 70z"/>
<glyph glyph-name="ecommerce-won" unicode="&#57503;" d="M256 4c-68 0-133 27-181 75-48 48-75 113-75 181 0 68 27 133 75 181 48 48 113 75 181 75 68 0 133-27 181-75 48-48 75-113 75-181 0-68-27-133-75-181-48-48-113-75-181-75z m0 496c-64 0-124-25-170-70-45-46-70-106-70-170 0-64 25-124 70-170 46-45 106-70 170-70 64 0 124 25 170 70 45 46 70 106 70 170 0 64-25 124-70 170-46 45-106 70-170 70z m78-376l-20 0-56 240-4 0-56-240-20 0-66 262 16 4 60-240 54 230 28 0 54-230 60 240 16-4z m-230 160l304 0 0-16-304 0z m0-48l304 0 0-16-304 0z"/>
<glyph glyph-name="ecommerce-yen" unicode="&#57504;" d="M256 4c-68 0-133 27-181 75-48 48-75 113-75 181 0 68 27 133 75 181 48 48 113 75 181 75 68 0 133-27 181-75 48-48 75-113 75-181 0-68-27-133-75-181-48-48-113-75-181-75z m0 496c-64 0-124-25-170-70-45-46-70-106-70-170 0-64 25-124 70-170 46-45 106-70 170-70 64 0 124 25 170 70 45 46 70 106 70 170 0 64-25 124-70 170-46 45-106 70-170 70z m8-368l-16 0 0 117-95 134 14 10 97-138z m81 261l14-10-96-136-14 10z m-177-157l176 0 0-16-176 0z m104 48l72 0 0-16-72 0z m-104 0l72 0 0-16-72 0z"/>
<glyph glyph-name="ecommerce-yen2" unicode="&#57505;" d="M256 4c-68 0-133 27-181 75-48 48-75 113-75 181 0 68 27 133 75 181 48 48 113 75 181 75 68 0 133-27 181-75 48-48 75-113 75-181 0-68-27-133-75-181-48-48-113-75-181-75z m0 496c-64 0-124-25-170-70-45-46-70-106-70-170 0-64 25-124 70-170 46-45 106-70 170-70 64 0 124 25 170 70 45 46 70 106 70 170 0 64-25 124-70 170-46 45-106 70-170 70z m-96-112l192 0 0-16-192 0z m-32-48l256 0 0-16-256 0z m56-216l-32 0 0 16 32 0c15 0 16 32 16 32l0 160 16 0 0-160c0-18-7-48-32-48z m160 0l-16 0c-32 0-40 26-40 40l0 168 16 0 0-168c0-4 1-24 24-24l16 0z"/>
<glyph glyph-name="money-regular" unicode="&#57506;" d="M256 516c-141 0-256-115-256-256 0-141 115-256 256-256 141 0 256 115 256 256 0 141-115 256-256 256z m0-491c-130 0-235 105-235 235 0 130 105 235 235 235 130 0 235-105 235-235 0-130-105-235-235-235z m-55 301c0 24 23 45 59 45 37 0 64-24 64-24l15 22c0 0-23 23-68 25l0 37-24 0 0-37c-44-4-74-36-74-70 0-81 145-66 145-132 0-28-26-45-58-45-44 0-74 30-74 30l-17-19c0 0 27-30 81-32l0-37 23 0 0 34c47 5 75 35 75 71-2 85-147 72-147 132z"/>
<glyph glyph-name="ecommerce-creditcard" unicode="&#57507;" d="M512 84l-512 0 0 352 512 0z m-496 16l480 0 0 320-480 0z m-8 288l496 0 0-16-496 0z m0-64l496 0 0-16-496 0z m40-176l32 0 0-16-32 0z m48 0l232 0 0-16-232 0z"/>
<glyph glyph-name="credit" unicode="&#57508;" d="M461 414l-410 0c-14 0-25-12-25-26l0-256c0-14 11-26 25-26l410 0c14 0 25 12 25 26l0 256c0 14-11 26-25 26z m-418-69l426 0 0-34-426 0z m426-213c0-5-4-8-8-8l-410 0c-4 0-8 3-8 8l0 162 426 0z m-426 230l0 26c0 5 4 8 8 8l410 0c4 0 8-3 8-8l0-26z m34-187l170 0 0-17-170 0z m0 51l102 0 0-17-102 0z m307-68l34 0c10 0 17 7 17 16l0 1c0 9-7 17-17 17l-34 0c-10 0-17-8-17-17l0-1c0-9 7-16 17-16z"/>
<glyph glyph-name="credit-card-regular" unicode="&#57509;" d="M473 437l-434 0c-21 0-39-17-39-39l0-276c0-21 18-39 39-39l434 0c21 0 39 18 39 39l0 276c0 22-18 39-39 39z m-434-19l434 0c11 0 19-8 19-20l0-20-472 0 0 20c0 12 8 20 19 20z m453-59l0-79-472 0 0 79z m-19-257l-434 0c-11 0-19 8-19 20l0 138 472 0 0-138c0-12-8-20-19-20z m-256 119l236 0 0-20-236 0z m78-40l158 0 0-19-158 0z"/>
<glyph glyph-name="ecommerce-cart-cloud" unicode="&#57510;" d="M160 4c-31 0-56 25-56 56 0 31 25 56 56 56 31 0 56-25 56-56 0-31-25-56-56-56z m0 96c-22 0-40-18-40-40 0-22 18-40 40-40 22 0 40 18 40 40 0 22-18 40-40 40z m192-96c-31 0-56 25-56 56 0 31 25 56 56 56 31 0 56-25 56-56 0-31-25-56-56-56z m0 96c-22 0-40-18-40-40 0-22 18-40 40-40 22 0 40 18 40 40 0 22-18 40-40 40z m-144-32l96 0 0-16-96 0z m-104-9l-31 433-73 0 0 16 87 0 33-447z m1 105l-2 16 339 24 52 224-406 0 0 16 426 0-60-256z m239 96l-112 0c-20 0-32 12-32 32 0 10 9 28 26 31 7 25 32 49 62 49 34 0 60-21 64-49 16-4 24-21 24-31 0-20-12-32-32-32z m-112 48c-11 0-16-12-16-16 0-12 4-16 16-16l112 0c11 0 16 5 16 16 0 4-5 16-16 16l-8 0 0 8c0 26-25 40-48 40-23 0-44-22-48-42l-1-6z"/>
<glyph glyph-name="ecommerce-cart-check" unicode="&#57511;" d="M160 4c-31 0-56 25-56 56 0 31 25 56 56 56 31 0 56-25 56-56 0-31-25-56-56-56z m0 96c-22 0-40-18-40-40 0-22 18-40 40-40 22 0 40 18 40 40 0 22-18 40-40 40z m192-96c-31 0-56 25-56 56 0 31 25 56 56 56 31 0 56-25 56-56 0-31-25-56-56-56z m0 96c-22 0-40-18-40-40 0-22 18-40 40-40 22 0 40 18 40 40 0 22-18 40-40 40z m-144-32l96 0 0-16-96 0z m-104-9l-31 433-73 0 0 16 87 0 33-447z m1 105l-2 16 339 24 52 224-406 0 0 16 426 0-60-256z m173 98l-12 0-56 56 12 12 50-51 98 99 12-12z"/>
<glyph glyph-name="ecommerce-cart" unicode="&#57512;" d="M160 4c-31 0-56 25-56 56 0 31 25 56 56 56 31 0 56-25 56-56 0-31-25-56-56-56z m0 96c-22 0-40-18-40-40 0-22 18-40 40-40 22 0 40 18 40 40 0 22-18 40-40 40z m192-96c-31 0-56 25-56 56 0 31 25 56 56 56 31 0 56-25 56-56 0-31-25-56-56-56z m0 96c-22 0-40-18-40-40 0-22 18-40 40-40 22 0 40 18 40 40 0 22-18 40-40 40z m-144-32l96 0 0-16-96 0z m-104-9l-31 433-73 0 0 16 87 0 33-447z m1 105l-2 16 339 24 52 224-406 0 0 16 426 0-60-256z m159 269l-14 43-68 0-14-43-16 6 18 53 92 0 18-53z m176 0l-22 67-120 0-38-23-8 14 42 25 136 0 26-77z"/>
<glyph glyph-name="cart" unicode="&#57513;" d="M490 362l-359 0-29 120-80 0 0-17 67 0 83-343c-17-6-31-22-31-41 0-24 20-43 43-43 24 0 43 19 43 43 0 10-4 18-9 25l120 0c-6-7-9-15-9-25 0-24 19-43 43-43 23 0 42 19 42 43 0 23-19 43-42 43l-183 0-8 34 240 0 69 204z m-280-281c0-14-12-26-26-26-14 0-25 12-25 26 0 14 11 25 25 25 14 0 26-11 26-25z m187 0c0-14-11-26-25-26-14 0-26 12-26 26 0 14 12 25 26 25 14 0 25-11 25-25z m-220 94l-41 170 330 0-58-170z"/>
<glyph glyph-name="cash" unicode="&#57514;" d="M293 344c-28 0-51-23-51-50 0-28 23-51 51-51 27 0 50 23 50 51 0 27-23 50-50 50z m0-84c-19 0-34 15-34 34 0 18 15 33 34 33 18 0 33-15 33-33 0-19-15-34-33-34z m-202 159l0-251 403 0 0 251z m386-56l0-179-369 0 0 219 369 0z m-73-212l-330 0 0 235-16 0 0-252 402 0 0 17z m-34-34l-329 0 0 235-17 0 0-251 403 0 0 16z m-237 268l50 0 0-16-50 0z m0-167l50 0 0-17-50 0z m269 167l50 0 0-16-50 0z m0-167l50 0 0-17-50 0z"/>
<glyph glyph-name="message-regular" unicode="&#57515;" d="M0 486l0-334 158 0 0-119 118 119 236 0 0 334z m492-315l-224 0-6-5-85-85 0 90-157 0 0 296 472 0z m-394 217l315 0 0-20-315 0z m0-59l315 0 0-20-315 0z m0-59l237 0 0-20-237 0z"/>
<glyph glyph-name="trolley-regular" unicode="&#57516;" d="M509 164l0 308-440 0 0 44-66 0 0-22 44 0 0-439 374 0 0 22-352 0 0 87z m-132 22l-88 0 0 264 88 0z m-110 0l-88 0 0 264 88 0z m220 0l-88 0 0 264 88 0z m-418 264l88 0 0-264-88 0z m51-428c0-10-8-18-18-18-9 0-17 8-17 18 0 9 8 17 17 17 10 0 18-8 18-17z m285 0c0-10-7-18-17-18-10 0-18 8-18 18 0 9 8 17 18 17 10 0 17-8 17-17z"/>
<glyph glyph-name="transport-regular" unicode="&#57517;" d="M512 115l-40 0 0 217-118 0 0-99-98 0 0-118-197 0 0 79 79-79 275 276-78 79-276-276 0 217-59 0 0-20 40 0 0-295 472 0z m-177 327l51-51-248-248-51 51z m39-130l79 0 0-79-79 0z m-98-98l177 0 0-99-177 0z m-168-148c0-8-7-16-15-16-9 0-16 8-16 16 0 9 7 16 16 16 8 0 15-7 15-16z m364 0c0-8-7-16-15-16-9 0-16 8-16 16 0 9 7 16 16 16 8 0 15-7 15-16z"/>
<glyph glyph-name="window-regular" unicode="&#57518;" d="M0 516l0-512 512 0 0 512z m21-128l171 0 0-363-171 0z m470-363l-278 0 0 363 278 0z m-470 384l0 86 470 0 0-86z m60 43c0-9-8-17-17-17-9 0-17 8-17 17 0 9 8 17 17 17 9 0 17-8 17-17z m53 0c0-9-7-17-17-17-9 0-17 8-17 17 0 9 8 17 17 17 10 0 17-8 17-17z m54 0c0-9-8-17-17-17-10 0-17 8-17 17 0 9 7 17 17 17 9 0 17-8 17-17z m-124-107l85 0 0-21-85 0z m0-64l85 0 0-21-85 0z m0-64l85 0 0-21-85 0z"/>
<glyph glyph-name="weather-cloud-lightning" unicode="&#57519;" d="M290 337l-112-152 6-13 39 0-15-95 14-6 112 152-6 13-39 0 15 95z m22-117l-83-113 11 72-8 9-32 0 83 113-11-72 8-9z m136 120c-4 90-80 160-176 160-85 0-157-53-174-128l-10 0c-48 0-88-44-88-96 0-50 38-88 88-88l56 0 0 16-56 0c-41 0-72 31-72 72 0 43 33 80 72 80l23 0 1 7c13 70 80 121 160 121 90 0 160-67 160-152l0-8 8 0c33 0 56-34 56-64 0-32-24-56-56-56l-72 0 0-16 72 0c41 0 72 31 72 72 0 36-25 75-64 80z"/>
<glyph glyph-name="weather-cloud" unicode="&#57520;" d="M88 108l352 0c41 0 72 31 72 72 0 36-25 75-64 80-4 90-80 160-176 160-85 0-157-53-174-128l-10 0c-48 0-88-44-88-96 0-50 38-88 88-88z m0 168l23 0 1 7c13 70 80 121 160 121 90 0 160-67 160-152l0-8 8 0c33 0 56-34 56-64 0-32-24-56-56-56l-352 0c-41 0-72 31-72 72 0 43 33 80 72 80z"/>
<glyph glyph-name="refresh-cloud" unicode="&#57521;" d="M418 286c0 1 1 2 1 4 0 73-60 132-133 132-52 0-98-31-119-75-9 4-19 7-30 7-34 0-62-25-68-57-40-14-69-52-69-97 0-56 46-102 102-102l317 0c51 0 93 42 93 94 0 52-42 94-94 94z m0-171l-316 0c-47 0-85 38-85 85 0 37 23 69 58 81l9 3 2 10c4 25 26 43 51 43 7 0 15-2 22-6l16-7 7 15c20 40 60 66 104 66 64 0 115-52 115-115 0-1 0-1 0-1 0-1 0-2 0-3l0-17 17 0c42 0 77-35 77-77 0-42-34-77-77-77z m-162 60c-33 0-60 27-60 60 0 32 27 59 60 59l0-31 64 37-64 37 0-26c-42 0-77-34-77-76 0-43 35-77 77-77 42 0 77 34 77 77l-17 0c0-33-27-60-60-60z"/>
<glyph glyph-name="cloud" unicode="&#57522;" d="M286 405c64 0 115-52 115-115 0-1 0-1 0-1 0-1 0-2 0-3l0-17 17 0c42 0 77-35 77-77 0-42-34-77-77-77l-316 0c-47 0-85 38-85 85 0 37 23 69 58 81l9 3 2 10c4 25 26 43 51 43 7 0 15-2 22-6l16-7 7 15c20 40 60 66 104 66z m0 17c-52 0-98-31-119-75-9 4-19 7-30 7-34 0-62-25-68-57-40-14-69-52-69-97 0-56 46-102 102-102l317 0c51 0 93 42 93 94 0 52-42 94-94 94 0 1 1 2 1 4 0 73-60 132-133 132z"/>
<glyph glyph-name="cloud-download" unicode="&#57523;" d="M321 110l12-12-77-76-76 76 12 12 56-56 0 224 17 0 0-224z m98 253c0 1 0 3 0 4 0 73-59 132-132 132-53 0-98-31-119-75-10 4-20 7-31 7-34 0-62-24-67-57-40-13-69-52-69-96 0-57 45-103 102-103l111 0 0 17-111 0c-47 0-85 39-85 86 0 36 23 68 57 80l10 4 2 10c4 24 25 42 50 42 8 0 16-2 23-5l16-8 7 16c19 40 60 65 104 65 63 0 115-52 115-115 0 0 0-1 0-1 0-1 0-2 0-3l-1-17 18 0c42 0 76-35 76-77 0-42-34-77-76-77l-120 0 0-17 120 0c52 0 93 42 93 94 0 52-41 94-93 94z"/>
<glyph glyph-name="cloud-regular" unicode="&#57524;" d="M433 280c0 4 0 6 0 9 0 77-61 138-138 138-51 0-94-27-118-67-12 6-25 8-39 8-55 0-99-43-99-98 0-10 2-20 4-28-25-13-43-39-43-71 0-43 36-78 79-78l413 0c12 19 20 43 20 69 0 53-33 98-79 118z m47-168l-401 0c-34 0-59 26-59 59 0 22 12 44 33 53l16 8-4 16c-4 8-6 16-6 22 0 43 36 78 79 78 10 0 21-1 31-5l16-8 10 15c20 36 59 58 100 58 65 0 118-54 118-119 0-2 0-4 0-7l0-16 14-6c41-18 67-55 67-101-2-15-6-31-14-47z"/>
<glyph glyph-name="cloud-upload" unicode="&#57525;" d="M192 258l-12 12 77 76 76-76-12-12-56 55 0-223-17 0 0 223z m227 105c0 1 0 3 0 4 0 73-59 132-132 132-53 0-98-31-119-75-9 4-20 7-31 7-34 0-62-24-67-57-40-13-69-52-69-96 0-57 46-103 102-103l111 0 0 17-111 0c-47 0-85 39-85 86 0 36 23 68 58 80l9 4 2 10c4 24 25 42 50 42 8 0 16-2 23-5l16-8 7 16c19 39 60 65 104 65 63 0 115-52 115-115 0 0 0-1 0-1 0-1 0-2 0-3l0-17 17 0c42 0 77-35 77-77 0-42-35-77-77-77l-120 0 0-17 120 0c52 0 94 42 94 94 0 52-42 94-94 94z"/>
<glyph glyph-name="cloudapp" unicode="&#57526;" d="M124 94l2 0c1 0 2 0 3 0 2 0 3 0 4 0l231 0c2 0 3 0 5 0 65 0 117 53 117 118 0 65-52 118-117 118-2 0-5 0-7 0-10 55-58 96-115 96-65 0-118-53-118-118 0-2 1-3 1-5 0 0 0 0-1 0-57 0-103-47-103-105 0-55 43-101 98-104z"/>
<glyph glyph-name="home-regular" unicode="&#57527;" d="M512 251l-256 254-256-254 13-13 33 31 0-254 420 0 0 254 31-31z m-218-217l-76 0 0 152 76 0z m153 0l-134 0 0 172-114 0 0-172-134 0 0 254 191 191 191-191z m-248 286c0-32 25-57 57-57 32 0 57 25 57 57 0 33-25 57-57 57-32 0-57-24-57-57z m95 0c0-21-17-38-38-38-21 0-38 17-38 38 0 21 17 38 38 38 21 0 38-17 38-38z"/>
<glyph glyph-name="home" unicode="&#57528;" d="M256 473l-85-85 0 34-69 0 0-102-60-60 12-12 202 201 202-201 12 12z m-136-68l34 0 0-34-34-34z m-18-154l0-204 120 0 0 119 68 0 0-119 120 0 0 204-154 154z m290-187l-85 0 0 119-102 0 0-119-85 0 0 180 136 137 136-137z"/>
<glyph glyph-name="basic-home" unicode="&#57529;" d="M-3 244l83 0 0-240 112 0 0 128 112 0 0-128 112 0 0 240 99 0-259 259z m403 16l0-240-80 0 0 128-144 0 0-128-80 0 0 240-61 0 221 221 221-221z"/>
<glyph glyph-name="basic-geolocalize-05" unicode="&#57530;" d="M296 364c0 22-18 40-40 40-22 0-40-18-40-40 0-22 18-40 40-40 22 0 40 18 40 40z m-64 0c0 13 11 24 24 24 13 0 24-11 24-24 0-13-11-24-24-24-13 0-24 11-24 24z m24-237l6 8c4 5 106 131 106 213 0 66-51 120-112 120-62 0-112-54-112-120 0-82 101-208 106-213z m0 325c53 0 96-47 96-104 0-65-74-166-96-195-22 29-96 130-96 195 0 57 43 104 96 104z m88-224l0-16 67 0 79-144-468 0 79 144 67 0 0 16-77 0-97-176 524 0-97 176z"/>
<glyph glyph-name="way" unicode="&#57531;" d="M265 335l117 0 51 60-51 58-117 0 0 34-17 0 0-34-151 0 0-118 151 0 0-16-118 0-50-59 50-59 118 0 0-168 17 0 0 168 151 0 0 118-151 0z m-151 17l0 84 260 0 36-41-36-43z m285-50l0-84-261 0-36 42 36 42z m-269 117l84 0 0-16-84 0z m168-134l84 0 0-17-84 0z"/>
<glyph glyph-name="trash" unicode="&#57532;" d="M418 422l-85 0 0 17c0 19-16 34-34 34l-86 0c-19 0-34-15-34-34l0-17-85 0 0-17 18 0 17-324c0-19 15-34 34-34l187 0c19 0 34 15 34 34l17 324 17 0 0 17z m-222 17c0 10 8 17 17 17l86 0c9 0 17-7 17-17l0-17-120 0 0 17z m171-357l0-1c0-10-7-17-17-17l-187 0c-10 0-17 7-17 17l0 1-17 323 255 0z m-120 289l18 0 0-273-18 0z m-33-273l-18 273-17-1 18-273z m119 272l-17 1-17-273 17-1z"/>
<glyph glyph-name="trash-regular" unicode="&#57533;" d="M473 477l-148 0 0 39-148 0 0-39-138 0 0-79 20 0 0-394 394 0 0 394 20 0z m-276 19l108 0 0-19-108 0z m-118-98l39 0 0-374-39 0z m295 0l0-374-59 0 0 374z m-79-374l-78 0 0 374 78 0z m-98 0l-59 0 0 374 59 0z m236 0l-39 0 0 374 39 0z m20 394l-394 0 0 39 394 0z"/>
<glyph glyph-name="tools" unicode="&#57534;" d="M473 104l-91 90 12 12-12 12-36-36-60 61 72 72c10-3 20-5 30-5 24 0 46 9 63 26 26 26 34 65 19 99l-5 11-39-38-31-1 0 30 40 40-11 5c-12 5-24 7-36 7-24 0-46-9-63-26-25-25-33-61-21-94l-73-72-102 102 12 12-67 67-36-36 67-67 12 12 102-102-72-73c-10 4-20 6-30 6-24 0-47-10-64-27-26-26-33-65-19-99l5-11 40 40 30 0-1-31-38-39 11-5c11-5 23-7 36-7 24 0 46 9 63 26 25 24 33 60 21 93l72 73 61-61-36-36 12-12 12 12 90-90c8-8 19-13 30-13 12 0 22 5 30 13 17 16 17 43 0 60z m-411 338l12 12 43-43-12-12z m121-285c12-28 6-59-15-80-14-14-32-21-51-21-6 0-11 0-17 1l25 25 1 56-54 0-26-26c-6 24 1 49 19 67 14 14 32 21 52 21 10 0 19-2 28-5l6-3 173 173-2 6c-12 27-6 59 15 80 13 13 32 21 51 21 6 0 11-1 16-2l-25-26-1-54 56 1 25 25c5-24-2-50-20-68-13-13-32-21-51-21-10 0-20 2-29 6l-5 2-173-173 2-5z m277-101c-4-5-11-8-18-8-6 0-13 3-18 8l-90 90 36 36 90-90c10-10 10-26 0-36z"/>
<glyph glyph-name="spanner-regular" unicode="&#57535;" d="M495 439l-92-90c-8-9-18-13-29-13-10 0-21 4-29 13-17 16-17 42 0 58l90 90c-21 13-44 19-69 19-82 0-147-65-147-146 0-19 5-36 11-53l-230-229 84-84 229 230c17-6 34-11 53-11 81 0 146 65 146 147 0 25-6 48-17 69z m-129-195c-15 0-32 2-46 9l-13 4-223-224-55 55 215 215 11 10-4 13c-9 12-11 29-11 44 0 69 57 125 126 125 10 0 21-2 33-4l-67-67c-25-25-25-65 0-88 13-12 27-18 44-18 17 0 34 6 44 18l67 67c2-10 4-21 4-33 0-69-56-126-125-126z"/>
<glyph glyph-name="settings" unicode="&#57536;" d="M426 221l68 7 0 64-68 6c-5 21-13 40-23 56l38 51-39 39-51-38c-17 10-35 19-55 23l-8 68-64 0-7-68c-20-4-38-12-54-22l-53 37-39-39 37-53c-10-16-18-34-22-54l-68-7 0-64 68-8c4-20 13-38 23-55l-38-52 39-39 51 39c16-11 35-19 55-24l8-68 64 0 9 68c19 5 37 12 53 23l53-38 39 39-39 54c11 17 18 35 23 55z m51 56l0-33-51-5c0 7 1 14 1 22 0 8-1 14-1 22l51-6z m-78 147l19-19-28-38c-9 11-18 20-29 29z m-161 58l34 0 6-51c-8 1-15 1-22 1-8 0-16 0-22-1z m-147-78l20 20 39-27c-6-5-11-10-16-15-5-5-10-10-15-16z m-58-161l0 34 51 6c-1-8-1-15-1-23 0-8 0-15 1-22z m78-146l-19 18 28 38c9-10 18-20 28-28z m161-59l-34 0-6 51c8-1 15-1 23-1 8 0 15 0 23 1l-6-51z m-17 68c-85 0-155 69-155 154 0 41 17 80 46 109 29 29 68 45 109 45 85 0 154-69 154-154 0-41-16-80-45-109-29-29-67-45-109-45z m164 10l-19-19-39 28c6 4 11 10 16 15 5 5 9 10 14 16l28-40z"/>
<glyph glyph-name="cog-regular" unicode="&#57537;" d="M503 202c4 20 8 39 8 59 0 20-2 39-8 59l-41 0c-4 15-12 31-20 47l30 29c-20 32-49 61-83 83l-29-30c-14 8-29 14-47 20l0 39c-18 6-37 8-57 8-20 0-39-2-59-8l0-41c-16-4-31-12-47-20l-27 32c-34-22-63-51-85-85l30-29c-8-14-14-29-20-47l-39 0c-6-18-8-37-8-57 0-20 2-39 8-59l41 0c4-15 12-31 20-47l-30-29c20-32 49-61 83-83l29 30c14-8 29-14 47-20l0-41c20-4 39-8 59-8 19 0 39 2 59 8l0 41c15 4 31 12 47 20l29-30c33 22 63 49 82 83l-29 29c8 14 14 30 20 47z m-59 6c-4-16-10-29-17-41l-8-14 27-27c-13-22-33-41-55-57l-27 27-14-8c-14-7-27-13-41-17l-14-2 0-39c-13-2-25-4-39-4-14 0-25 2-39 4l0 39-14 4c-15 4-29 10-41 17l-14 8-27-27c-22 14-41 33-57 55l18 17 9 10-7 14c-8 14-14 27-18 41l-2 14-39 0c-2 14-4 25-4 39 0 14 2 25 4 39l39 0 4 14c4 16 10 29 17 41l8 14-11 12-18 15c16 22 35 41 57 57l27-27 14 7c14 8 27 14 41 18l14 2 0 39c14 2 25 4 39 4 14 0 25-2 39-4l0-39 14-4c16-4 29-10 41-17l14-8 27 27c22-14 41-33 57-55l-18-17-9-10 8-14c7-14 13-27 17-41l4-14 39 0c2-13 4-25 4-39 0-14-2-25-4-39l-39 0z m-188 131c-43 0-78-35-78-78 0-43 35-78 78-78 43 0 78 35 78 78 0 43-35 78-78 78z m0-137c-33 0-59 26-59 59 0 33 26 59 59 59 33 0 59-26 59-59 0-33-26-59-59-59z"/>
<glyph glyph-name="config" unicode="&#57538;" d="M282 456l0-41 12-4c15-3 29-9 41-17l12-7 30 30 36-36-30-31 6-11c7-12 13-26 16-40l3-13 44 0 0-52-45 0-3-12c-4-14-9-27-17-39l-7-11 33-33-36-36-33 33-12-6c-11-7-24-12-38-16l-12-3 0-47-52 0 0 47-12 3c-14 4-26 9-38 16l-12 6-33-33-36 36 33 33-7 11c-7 12-13 25-17 39l-3 12-45 0 0 52 44 0 3 13c3 14 9 28 16 40l6 11-30 31 36 36 30-30 12 7c12 8 26 14 41 17l12 4 0 41z m-26-273c42 0 77 35 77 77 0 42-35 77-77 77-42 0-77-35-77-77 0-42 35-77 77-77z m43 290l-86 0 0-45c-16-4-31-11-45-19l-33 32-60-60 33-33c-8-14-14-29-18-45l-47 0 0-86 49 0c4-15 10-29 18-42l-35-36 60-60 36 36c13-8 27-13 42-17l0-51 86 0 0 51c15 4 29 9 42 17l36-36 60 60-35 36c8 13 14 27 18 42l49 0 0 86-47 0c-4 16-10 31-18 45l33 33-60 60-33-32c-14 8-29 15-45 19l0 45z m-43-273c-33 0-60 27-60 60 0 33 27 60 60 60 33 0 60-27 60-60 0-33-27-60-60-60z"/>
<glyph glyph-name="map-marker" unicode="&#57539;" d="M256 499c85 0 154-69 154-154 0-27-8-53-21-76l-133-231-133 231c-13 23-21 49-21 76 0 85 69 154 154 154z m0-213c33 0 60 26 60 59 0 33-27 60-60 60-33 0-60-27-60-60 0-33 27-59 60-59z m0 230c-94 0-171-76-171-171 0-31 9-60 23-85l148-256 148 256c14 25 23 54 23 85 0 95-77 171-171 171z m0-213c-24 0-43 19-43 42 0 24 19 43 43 43 24 0 43-19 43-43 0-23-19-42-43-42z"/>
<glyph glyph-name="gift-regular" unicode="&#57540;" d="M512 388l-163 0c9 10 15 24 15 39 0 34-25 59-59 59-19 0-39-9-49-25-10 16-29 25-49 25-34 0-59-25-59-59 0-15 6-29 15-39l-163 0 0-79 20 0 0-275 472 0 0 275 20 0z m-207 79c22 0 40-18 40-40 0-21-18-39-40-39l-39 0 0 39c0 22 18 40 39 40z m-138-40c0 22 18 40 40 40 21 0 39-18 39-40l0-39-39 0c-22 0-40 18-40 39z m-147-59l226 0 0-39-226 0z m19-59l207 0 0-256-207 0z m434-256l-207 0 0 256 207 0z m19 276l-226 0 0 39 226 0z"/>
<glyph glyph-name="gift" unicode="&#57541;" d="M361 362c14 13 23 31 23 52 0 37-31 68-68 68-26 0-48-14-60-36-12 22-34 36-60 36-37 0-68-31-68-68 0-21 9-39 23-52l-100 0 0-324 410 0 0 324z m83-17l0-136-179 0 0 136 10 0 42-72 15 8-37 64z m-188 34l10-17-20 0z m60 86c28 0 51-23 51-51 0-29-23-52-51-52-29 0-51 23-51 52 0 28 22 51 51 51z m-171-51c0 28 23 51 51 51 29 0 51-23 51-51 0-29-22-52-51-52-28 0-51 23-51 52z m72-69l-37-64 15-8 42 72 10 0 0-136-179 0 0 136z m-149-153l179 0 0-137-179 0z m197-137l0 137 179 0 0-137z"/>
<glyph glyph-name="wallet-regular" unicode="&#57542;" d="M512 250l-20 0 0 123-287 0c0 34-27 61-62 61-34 0-61-27-61-61l-82 0 0-369 492 0 0 123 20 0z m-369 164c23 0 41-19 41-41l-82 0c0 22 19 41 41 41z m328-390l-451 0 0 328 451 0 0-102-164 0 0-123 164 0z m21 123l-164 0 0 82 164 0z m-107 41c0-9-7-16-16-16-9 0-17 7-17 16 0 9 8 17 17 17 9 0 16-8 16-17z m-78 205c35 0 62 27 62 61 0 35-27 62-62 62-35 0-61-27-61-61 0-35 26-62 61-62z m0 103c23 0 41-19 41-41 0-23-18-41-41-41-22 0-41 18-41 41 0 22 19 41 41 41z"/>
<glyph glyph-name="wallet" unicode="&#57543;" d="M448 379l-56 0 0 47c0 21-17 39-38 39l-264 0c-21 0-39-18-39-39l0-358c0-7 6-13 13-13l384 0c7 0 13 6 13 13l0 299c0 7-6 12-13 12z m-358 69l264 0c12 0 21-10 21-22l0-47-307 0 0 47c0 12 10 22 22 22z m354-376l-376 0 0 290 376 0z m-120 145c0-23 19-42 43-42 23 0 43 19 43 42 0 24-20 43-43 43-24 0-43-19-43-43z m68 0c0-14-11-25-25-25-14 0-26 11-26 25 0 14 12 26 26 26 14 0 25-12 25-26z"/>
<glyph glyph-name="print" unicode="&#57544;" d="M120 320c-10 0-18-8-18-17 0-10 8-17 18-17 9 0 17 7 17 17 0 9-8 17-17 17z m51 0c-10 0-17-8-17-17 0-10 7-17 17-17 9 0 17 7 17 17 0 9-8 17-17 17z m298 68l-94 0 0 85-238 0 0-85-94 0c-5 0-9-4-9-9l0-255c0-5 4-9 9-9l94 0 0-68 238 0 0 68 94 0c5 0 9 4 9 9l0 255c0 5-4 9-9 9z m-315 68l204 0 0-68-204 0z m204-392l-204 0 0 153 204 0z m103 68l-86 0 0 102-238 0 0-102-86 0 0 239 410 0z"/>
<glyph glyph-name="printer-regular" unicode="&#57545;" d="M439 415l-37 0 0 74-292 0 0-74-37 0-73-73 0-256 73 0 0-55 366 0 0 55 73 0 0 256z m-311 55l256 0 0-91-256 0z m-48-73l30 0 0-18-19 0-18-18 366 0-18 18-19 0 0 18 30 0 54-55-460 0z m341-347l-330 0 0 91 330 0z m18 55l0 36 18 0 0 18-402 0 0-18 18 0 0-36-55 0 0 219 476 0 0-219z m24 173c0-8-7-14-15-14-8 0-15 6-15 14 0 8 7 15 15 15 8 0 15-7 15-15z m-408 9l110 0 0-18-110 0z"/>
<glyph glyph-name="portfolio" unicode="&#57546;" d="M316 401l0 42-120 0 0-42-145 0 0-324 410 0 0 324z m-103 25l86 0 0-25-86 0z m-17-42l248 0 0-137-128 0 0 34-120 0 0-34-128 0 0 137z m103-120l0-51-86 0 0 51z m-231-170l0 136 128 0 0-34 120 0 0 34 128 0 0-136z"/>
<glyph glyph-name="notebook" unicode="&#57547;" d="M256 465l-136 0c-41 0-69-28-69-69l0-283c0-14 5-58 70-58l340 0 0 410z m-17-17l0-164-42 39-46-40 0 165 88 0z m-119 0l14 0 0-201 63 53 59-54 0 202 188 0 0-282-324 0c-22 0-40-6-52-18l0 248c0 32 20 52 52 52z m1-376c-39 0-50 18-52 35 0 26 19 42 51 42l324 0 0-77z"/>
<glyph glyph-name="folder-regular" unicode="&#57548;" d="M236 418l-39 39-197 0 0-394 512 0 0 355z m256-335l-472 0 0 256 472 0z m-472 275l0 79 169 0 39-39 264 0 0-40z"/>
<glyph glyph-name="folder" unicode="&#57549;" d="M427 392l-222 0 0 9c0 19-15 34-34 34l-86 0c-18 0-34-15-34-34l0-282c0-19 16-34 34-34l342 0c18 0 34 15 34 34l0 239c0 19-16 34-34 34z m-359 9c0 9 8 17 17 17l86 0c9 0 17-8 17-17l0-26 239 0c9 0 17-7 17-17l0-17-376 0 0 60z m359-299l-342 0c-9 0-17 8-17 17l0 205 376 0 0-205c0-9-8-17-17-17z"/>
<glyph glyph-name="envelope-regular" unicode="&#57550;" d="M0 437l0-354 512 0 0 354z m484-19l-228-229-228 229z m8-316l-472 0 0 296 236-236 236 236z"/>
<glyph glyph-name="file" unicode="&#57551;" d="M405 320l-145 145-153 0 0-410 298 0 0 265z m-145 121l113-113-113 0z m-136-369l0 376 119 0 0-137 145 0 0-239-264 0z"/>
<glyph glyph-name="file-regular" unicode="&#57552;" d="M373 516l-362 0 0-512 490 0 0 384z m98-128l-98 0 0 98z m9-363l-448 0 0 470 320 0 0-128 128 0z"/>
<glyph glyph-name="book-regular" unicode="&#57553;" d="M59 516l0-512 394 0 0 512z m20-20l19 0 0-472-19 0z m354-472l-315 0 0 472 315 0z m-59 394l-197 0 0-119 197 0z m-20-99l-157 0 0 79 157 0z m-177-177l197 0 0-20-197 0z m40-40l118 0 0-19-118 0z"/>
<glyph glyph-name="bag-regular" unicode="&#57554;" d="M332 383l0 57c0 42-34 76-76 76-42 0-76-34-76-76l0-57-95 0 0-379 342 0 0 379z m-133 57c0 32 25 57 57 57 32 0 57-25 57-57l0-57-114 0z m209-417l-304 0 0 341 76 0 0-38 19 0 0 38 114 0 0-38 19 0 0 38 76 0 0-341z"/>
<glyph glyph-name="back-2" unicode="&#57555;" d="M101 315l0-283 393 0 0 393-307 0 0 64-171-116z m69 109c0 0 0-1 0 0l0-17 16 0c0 0 0 0 1 0 0 0 1 0 1 0 81 0 133-45 157-101-49 41-112 46-143 46-1 0-1 0-2 0l-30 0 0-62-123 83 123 83 0-32z m-52-120l69-47 0 77c3 0 8 1 15 1 43 0 134-11 172-98 0 72-36 139-105 170l208 0 0-359-359 0z"/>
<glyph glyph-name="box2" unicode="&#57556;" d="M478 420l-222 81-230-84 0-315 230-83 230 83 0 315-8 3z m-231-380l-204 74 0 284 204-74z m9 299l-197 72 197 72 197-72z m213-225l-204-74 0 284 204 74z"/>
<glyph glyph-name="box-regular" unicode="&#57557;" d="M439 425l-366 0-73-74 0-256 512 0 0 256z m-358-19l350 0 55-55-157 0 0-54-146 0 0 54-157 0z m413-292l-476 0 0 219 147 0 0-55 183 0 0 55 146 0z"/>
<glyph glyph-name="copy-file" unicode="&#57558;" d="M446 398l-87 86-189 0 0-69-104 0 0-379 276 0 0 69 104 0z m-87 62l62-62-62 0z m-275-407l0 345 155 0 0-86 86 0 0-259z m172 338l62-62-62 0z m86-269l0 207-86 86-69 0 0 52 155 0 0-86 86 0 0-259z"/>
<glyph glyph-name="culture" unicode="&#57559;" d="M432 323l68 0-247 147-241-147 62 0 0-256-34 0 0-17 426 0 0 17-34 0z m-359 17l180 110 185-110z m18-273l0 256 51 0 0-256z m68 0l0 256 51 0 0-256z m68 0l0 256 51 0 0-256z m68 0l0 256 52 0 0-256z m69 0l0 256 51 0 0-256z"/>
<glyph glyph-name="movie-file-regular" unicode="&#57560;" d="M373 516l-362 0 0-512 490 0 0 384z m98-128l-98 0 0 98z m9-363l-448 0 0 470 320 0 0-128 128 0z m-320 86l213 128-213 128z m21 217l152-89-152-90z"/>
<glyph glyph-name="news-paper" unicode="&#57561;" d="M145 473l0-239-102 0c0 0 0-105 0-139 0-34 31-48 55-48 23 0 260 0 320 0 26 0 51 25 51 51 0 19 0 375 0 375z m-47-409c-11 0-38 5-38 31l0 122 85 0 0-115c0-11-15-38-38-38z m354 34c0-17-17-34-34-34l-274 0c12 12 18 28 18 38l0 354 290 0z m-256 324l222 0 0-17-222 0z m0-230l222 0 0-17-222 0z m0-60l222 0 0-17-222 0z m222 230l-222 0 0-128 222 0z m-17-111l-188 0 0 94 188 0z"/>
<glyph glyph-name="pen" unicode="&#57562;" d="M492 423l-68 68-16-16-24 23c-3 3-8 3-12 0l-138-138c-3-4-3-9 0-12 2-2 4-3 6-3 2 0 5 1 6 3l132 132 18-18-293-293 19-19c-8 4-17 6-26 6-15 0-31-6-42-18-2-1-3-2-4-4 0 0-1-1-1-1-1-1-2-2-2-3-1 0-1-1-1-2-25-37-26-108-26-108 0 0 2 0 7 0 20 0 80 3 111 34 19 18 22 46 11 68l22-21 321 322z m-366-357c-19-19-52-26-76-28l39 39-12 12-38-37c3 22 9 50 21 67l0 1 1 0c0 1 0 1 1 2 0 1 1 1 1 2 1 1 2 1 3 2 8 8 18 13 30 13 11 0 22-5 30-13 17-16 17-44 0-60z m342 357l-101-101-44 44 101 101z m-157-69l44-44-184-185-44 44z"/>
<glyph glyph-name="pen-regular" unicode="&#57563;" d="M428 516l-43-44-30 27-154-154 14-15 140 140 13-13-368-369 0-84 84 0 428 428z m55-84l-220-217-54 54 219 218z m-408-407l-54 0 0 54 175 176 55-55z"/>
<glyph glyph-name="pencil-regular" unicode="&#57564;" d="M428 516l-428-428 0-84 84 0 428 428z m55-84l-50-50-55 55 50 50z m-408-407l-54 0 0 54 343 341 54-54z"/>
<glyph glyph-name="text-file-regular" unicode="&#57565;" d="M501 388l-128 128-362 0 0-512 490 0z m-30 0l-98 0 0 98z m9-363l-448 0 0 470 320 0 0-128 128 0z m-363 235l278 0 0-21-278 0z m0 85l86 0 0-21-86 0z m0-149l278 0 0-21-278 0z m0-64l192 0 0-21-192 0z"/>
<glyph glyph-name="study" unicode="&#57566;" d="M504 337l-248 120-248-120 35-21 0-184 17 0 0 174 51-31 0-212 290 0 0 212z m-248 101l212-103-212-128-212 128z m128-358l-256 0 0 185 128-78 128 78z"/>
<glyph glyph-name="video" unicode="&#57567;" d="M451 371l-110-66 0 74c0 15-11 26-25 26l-273 0c-14 0-26-11-26-26l0-238c0-15 12-26 26-26l273 0c14 0 25 11 25 26l0 75 112-67 42 0 0 222z m-127-230c0-5-4-9-8-9l-273 0c-5 0-9 4-9 9l0 238c0 5 4 9 9 9l273 0c4 0 8-4 8-9z m154 25l-20 0-117 70 0 49 115 69 22 0z"/>
<glyph glyph-name="play" unicode="&#57568;" d="M120 409l256-149-256-149z m-18 30l0-358 308 179-308 179z"/>
<glyph glyph-name="music" unicode="&#57569;" d="M461 493l-282-100 0-247c-13 16-33 26-55 26-40 0-73-32-73-72 0-40 33-73 73-73 39 0 72 32 72 72l0 282 248 88 0-229c-14 16-34 26-56 26-40 0-72-32-72-72 0-40 32-73 72-73 40 0 73 33 73 73 0 1 0 2 0 4z m-337-449c-31 0-56 25-56 56 0 30 25 55 56 55 30 0 55-25 55-55 0-31-25-56-55-56z m264 94c-30 0-55 25-55 56 0 30 25 55 55 55 31 0 56-25 56-55 0-31-25-56-56-56z"/>
<glyph glyph-name="mouse" unicode="&#57570;" d="M265 379l0 26c0 8 16 18 29 27 19 12 39 24 39 42l0 42-17 0 0-42c0-9-17-19-31-28-18-11-38-23-38-41l0-26c-66-4-119-58-119-124l0-127c0-68 57-124 128-124 71 0 128 56 128 124l0 127c0 66-53 120-119 124z m102-124l0-12-102 0 0 119c57-4 102-50 102-107z m-222 0c0 57 45 103 102 107l0-119-102 0z m111-234c-61 0-111 48-111 107l0 98 222 0 0-98c0-59-50-107-111-107z"/>
<glyph glyph-name="microphone-regular" unicode="&#57571;" d="M409 515c-57 0-103-45-103-103 0-6 0-12 2-18l-269-270 33-33-72-72 14-14 72 72 35-35 270 269c6-2 12-2 18-2 58 0 103 46 103 103 0 58-45 103-103 103z m-288-444l-53 53 249 249 53-53z m288 259c-8 0-16 2-24 4l-54 54c-2 8-4 16-4 24 0 45 37 82 82 82 45 0 82-37 82-82 0-45-37-82-82-82z"/>
<glyph glyph-name="lintern" unicode="&#57572;" d="M137 516l0-51 59-103 0-358 120 0 0 358 59 103 0 51z m17-17l204 0 0-30-2-4-200 0-2 4z m59-478l0 34 86 0 0-34z m88 350l-2-4 0-295-86 0 0 295-47 81 180 0z m-45-94c-14 0-26-11-26-26l0-34c0-14 12-25 26-25 14 0 26 11 26 25l0 34c0 15-12 26-26 26z m9-60c0-4-4-8-9-8-5 0-9 4-9 8l0 34c0 5 4 9 9 9 5 0 9-4 9-9z"/>
<glyph glyph-name="livejournal" unicode="&#57573;" d="M429 40c0 0-1 0-1 0l-156 65c-1 1-2 2-2 3-1 1 0 3 1 4 18 17 27 40 27 65 0 11-1 21-5 31 0 1 0 1 0 1l-114 153c-23-20-44-49-42-78 0-2-1-4-4-4-2-1-4 1-4 3-3 35 24 69 51 90 32 25 66 36 90 28 2 0 3-3 3-5-1-2-3-3-6-2-20 6-52-4-82-27l117-156c30-18 70-17 99 3 1 1 3 1 4 0 1 0 2-1 2-3l26-167c0-1 0-3-1-3-1-1-2-1-3-1z m-148 70l143-60-24 154c-29-17-66-19-96-3 2-8 3-16 3-24 0-25-10-48-26-67z m-179 213c-2 0-4 2-4 4-3 35 24 69 51 90 32 25 66 36 90 28 2-1 3-3 3-5-1-2-3-3-6-3-20 7-53-3-82-26-25-20-50-52-48-83 0-2-1-4-4-4 0-1 0-1 0-1z m274-257c6 20 23 36 44 40l9-62z m-182 406c-53 0-135-75-105-127l175-232 165-69-28 181-175 231c-7 11-18 16-32 16z m0 16c20 0 36-8 46-22l174-231c2-2 3-5 3-7l28-182c1-6-1-11-6-15-3-2-6-3-10-3-2 0-4 0-6 1l-166 69c-2 1-5 3-6 5l-175 232c0 1-1 1-1 2-13 22-11 50 5 77 24 41 75 74 114 74z"/>
<glyph glyph-name="call" unicode="&#57574;" d="M375 30c-39 0-134 49-213 156-75 100-111 172-111 221 0 38 27 56 41 66l3 3c16 11 40 14 50 14 16 0 23-9 27-18 4-7 33-70 36-78 5-12 3-29-11-40l-2-1c-7-5-20-14-22-25-1-5 1-11 5-17 23-31 96-121 109-133 10-10 23-11 32-4 9 8 13 13 13 13l1 1c1 0 8 6 20 6 8 0 17-3 25-9 22-15 72-48 72-48l1-1c6-5 15-21 5-41-11-21-46-65-82-65z m-230 443c-8 0-28-3-40-11l-3-3c-14-9-34-23-34-52 0-45 35-114 107-211 79-105 169-149 199-149 27 0 56 36 67 56 6 12 1 18-1 20-6 4-51 34-71 48-6 4-11 6-16 6-5 0-8-2-9-3-1-1-6-6-14-13-15-13-38-11-55 4-15 14-89 107-111 136-7 9-10 20-8 30 3 18 20 29 29 36l2 1c8 6 7 17 5 20-2 7-31 69-35 77-3 6-5 8-12 8z"/>
<glyph glyph-name="cup" unicode="&#57575;" d="M452 473c0 0-1 0-2 0l-388 0c-1 0-2 0-2 0-19 0-34-15-34-34 0-9 4-18 10-24l75-75 0 5c0-77 60-140 136-144l0-137-68 0 0-17 154 0 0 17-68 0 0 137c76 4 136 67 136 144l0-5 75 75c6 6 10 15 10 24 0 19-15 34-34 34z m-341-109l-63 63c-3 3-5 8-5 12 0 9 7 17 16 17 1 0 1 0 2 0l50 0 0-92z m273-19c0-70-57-128-128-128-71 0-128 58-128 128l0 111 256 0z m80 82l-63-63 0 92 50 0c1 0 1 0 2 0 9 0 16-8 16-17 0-4-2-9-5-12z"/>
<glyph glyph-name="diskette" unicode="&#57576;" d="M375 465l-324 0 0-410 410 0 0 324z m-34-17l0-120-170 0 0 120z m103-376l-376 0 0 376 86 0 0-137 204 0 0 137 10 0 76-76z m-154 342l18 0 0-52-18 0z m-119-222l170 0 0-17-170 0z m0-51l170 0 0-17-170 0z"/>
<glyph glyph-name="disk" unicode="&#57577;" d="M258 218c23 0 42 19 42 42 0 23-19 42-42 42-23 0-42-19-42-42 0-23 19-42 42-42z m0 67c14 0 25-11 25-25 0-14-11-25-25-25-14 0-25 11-25 25 0 14 11 25 25 25z m208-51c1 9 2 17 2 26 0 116-94 210-210 210-80 0-149-44-185-110 0-1-1-2-2-4-2-5-4-9-7-14 0-1 0-2 0-3-10-24-16-51-16-79 0-116 94-210 210-210 104 0 191 76 207 176 0 3 1 5 1 8z m-16 15c0-2 0-3 0-4 0-2 0-5-1-8 0-1 0-2 0-4 0-2-1-5-1-8-1-1-1-2-1-3-1-3-1-7-2-10 0-1 0-1 0-1-1-3-2-7-3-10-1-1-1-2-1-3-1-2-2-5-3-8-1-1-1-1-1-2-1-3-3-6-4-9 0 0 0-1-1-1-1-4-3-7-5-10l-100 60c4 10 7 21 7 32 0 42-34 76-76 76-1 0-1-1-1-1-3 0-5 0-8 0-15-2-28-8-38-16l-84 83c17 16 37 28 58 37 11 4 23 8 35 10 0 0 0 0 1 0 2 1 5 1 8 2 1 0 1 0 2 0 3 0 5 1 8 1 1 0 2 0 3 0 2 1 4 1 6 1 3 0 6 0 9 0 1 0 1 0 1 0 96 0 176-71 191-164 1-9 2-19 2-29 0-4 0-8-1-11z m-45-113c-2-3-4-5-6-8-1 0-1 0-1-1-2-2-4-4-6-6-1 0-1-1-2-1-2-2-4-4-6-6-1-1-1-1-2-1-2-2-5-4-7-6 0-1 0-1-1-1-5-4-11-8-17-12l-56 104c6 4 12 10 17 16l100-61c-4-6-8-11-12-17 0 0-1 0-1 0z m-84-58c-3-1-5-2-8-3-1 0-2 0-3-1-2 0-4-1-7-2-1 0-2 0-3 0-2-1-5-1-7-2-1 0-2 0-3 0-3-1-5-1-8-1-1-1-2-1-3-1-3 0-5 0-8-1-1 0-2 0-2 0-4 0-8 0-11 0-103 0-188 81-193 183 0 3 0 7 0 10 0 3 0 7 0 10 0 2 0 5 1 7 0 1 0 2 0 2 2 19 6 37 13 54 9 22 21 41 37 57l83-83c-9-12-15-26-16-42-1-1-1-3-1-5 0-42 34-76 76-76 10 0 19 2 28 6l56-104c-6-3-13-5-19-8-1 0-2 0-2-1z m-4 182c0-32-27-59-59-59-33 0-59 27-59 59 0 32 26 59 59 59 32 0 59-27 59-59z"/>
<glyph glyph-name="download" unicode="&#57578;" d="M181 303l-12-12 87-87 87 87-12 12-66-66 0 270-18 0 0-270z m118 119l0-17 111 0 0-290-308 0 0 290 111 0 0 17-128 0 0-325 342 0 0 325z"/>
</font>
</defs>
</svg>
